<?xml version="1.0" encoding="UTF-8"?>
<svg id="Layer_1" data-name="Layer 1" xmlns="http://www.w3.org/2000/svg" viewBox="0 0 2267.72 2267.72">
  <defs>
    <style>
      .cls-1 {
        fill: #b31240;
      }

      .cls-2 {
        fill: #052e62;
      }

      .cls-3 {
        fill: #f6f8f9;
      }

      .cls-4 {
        fill: #f7f8f9;
      }

      .cls-5 {
        fill: #f7f8fa;
      }

      .cls-6 {
        fill: #fefefe;
      }
    </style>
  </defs>
  <path class="cls-1" d="M0,4.19c6.61-.19,13.23-.55,19.84-.55,749.21-.03,1498.43-.02,2247.64-.02V177.8c-755.66,0-1511.32,.02-2266.98,.03C.33,119.95,.17,62.07,0,4.19Z"/>
  <path class="cls-1" d="M2267.48,351.99v174.19c-755.66,0-1511.32,.02-2266.98,.03,0-58.08,0-116.16,0-174.24,755.66,0,1511.32,.02,2266.98,.03Z"/>
  <path class="cls-1" d="M2267.48,1222.92c-749.72,0-1499.45,0-2249.17-.02-6.1,0-12.21-.36-18.31-.55,.17-57.88,.33-115.76,.5-173.64,755.66,0,1511.32,.02,2266.98,.03v174.19Z"/>
  <path class="cls-6" d="M2267.48,351.99c-755.66,0-1511.32-.02-2266.98-.03,0-58.04,0-116.09,0-174.13,755.66,0,1511.32-.02,2266.98-.03v174.19Z"/>
  <path class="cls-6" d="M2267.48,1048.73c-755.66,0-1511.32-.02-2266.98-.03,0-58.04,0-116.09,0-174.13,755.66,0,1511.32-.02,2266.98-.03v174.19Z"/>
  <path class="cls-6" d="M.5,526.2c755.66,0,1511.32-.02,2266.98-.03v174.19c-755.66,0-1511.32-.02-2266.98-.03v-174.13Z"/>
  <path class="cls-1" d="M.5,700.33c755.66,0,1511.32,.02,2266.98,.03v174.19c-755.66,0-1511.32,.02-2266.98,.03,0-58.08,0-116.16,0-174.24Z"/>
  <path class="cls-1" d="M0,1049.28c6.61-.19,13.23-.55,19.84-.55,749.21-.03,1498.43-.02,2247.64-.02v174.19c-755.66,0-1511.32,.02-2266.98,.03-.17-57.88-.33-115.76-.5-173.64Z"/>
  <path class="cls-1" d="M2267.48,1397.07v174.19c-755.66,0-1511.32,.02-2266.98,.03,0-58.08,0-116.16,0-174.24,755.66,0,1511.32,.02,2266.98,.03Z"/>
  <path class="cls-1" d="M2267.48,2268c-749.72,0-1499.45,0-2249.17-.02-6.1,0-12.21-.36-18.31-.55,.17-57.88,.33-115.76,.5-173.64,755.66,0,1511.32,.02,2266.98,.03v174.19Z"/>
  <path class="cls-6" d="M2267.48,1397.07c-755.66,0-1511.32-.02-2266.98-.03,0-58.04,0-116.09,0-174.13,755.66,0,1511.32-.02,2266.98-.03v174.19Z"/>
  <path class="cls-6" d="M2267.48,2093.82c-755.66,0-1511.32-.02-2266.98-.03,0-58.04,0-116.09,0-174.13,755.66,0,1511.32-.02,2266.98-.03v174.19Z"/>
  <path class="cls-6" d="M.5,1571.29c755.66,0,1511.32-.02,2266.98-.03v174.19c-755.66,0-1511.32-.02-2266.98-.03v-174.13Z"/>
  <path class="cls-1" d="M.5,1745.42c755.66,0,1511.32,.02,2266.98,.03v174.19c-755.66,0-1511.32,.02-2266.98,.03,0-58.08,0-116.16,0-174.24Z"/>
  <g>
    <path class="cls-2" d="M1250.57,600.31c0,49.58,0,99.16,0,148.74,0,49.55,0,99.1,0,148.65-.14,49.41-.27,98.82-.41,148.23-4.63,.17-9.25,.48-13.88,.48-406.72,.02-813.45-.06-1220.17,.38-12.58,.01-15.63-3.23-15.61-18.25,.42-335.54,.4-671.08,.05-1006.62-.01-13.58,2.92-16.72,14.3-16.71,407.57,.37,815.13,.31,1222.7,.33,4.2,0,8.41,.31,12.61,.48,.14,49.41,.27,98.82,.41,148.23,0,49.55,0,99.1,0,148.65,0,49.58,0,99.16,0,148.75,0,49.55,0,99.1,0,148.65Zm-859.66,75.8c1.62-1.56,3.33-3,4.83-4.7,12.89-14.56,25.98-22.46,40.52-2.57,1.5,2.05,4.08,4.45,6.5,1.8,2.15-2.35,.67-5.62,.02-8.39-1.99-8.45-8.4-17.81-5.33-24.9,3.24-7.51,12.08-11.61,18.34-17.41,2.12-1.96,5.24-2.91,6.18-8.15-7.83,0-15.29-.59-22.65,.16-7.98,.81-12.04-2.08-14.04-11.81-1.82-8.88-3.42-18.31-8.64-26.8-2.89,10.02-6.14,19.14-8.05,28.64-1.58,7.83-4.8,10.45-11.41,9.96-8.04-.59-16.13-.14-27.63-.14,9.35,8.08,15.15,13.8,21.53,18.41,6.58,4.76,7.25,9.83,4.87,18.38-2.47,8.88-8.44,17.35-5.03,27.73-.23-1.69-.67-2.82-2.16-1.1,.72,.3,1.43,.6,2.15,.9Zm0,208.18c1.62-1.56,3.33-3,4.84-4.7,12.89-14.56,25.98-22.46,40.52-2.57,1.5,2.05,4.08,4.45,6.5,1.8,2.15-2.35,.67-5.62,.02-8.39-1.99-8.45-8.4-17.81-5.33-24.9,3.24-7.51,12.08-11.61,18.34-17.41,2.12-1.96,5.24-2.91,6.18-8.15-7.83,0-15.29-.59-22.65,.16-7.98,.81-12.04-2.08-14.04-11.81-1.82-8.88-3.42-18.31-8.64-26.8-2.89,10.02-6.14,19.14-8.05,28.64-1.58,7.83-4.8,10.45-11.41,9.96-8.04-.59-16.13-.14-27.63-.14,9.35,8.08,15.15,13.79,21.53,18.41,6.58,4.76,7.25,9.83,4.87,18.38-2.47,8.88-8.44,17.35-5.04,27.73-.23-1.69-.67-2.82-2.16-1.1,.72,.3,1.43,.6,2.15,.9Zm0-416.35c1.62-1.56,3.33-3,4.83-4.7,12.89-14.56,25.98-22.46,40.52-2.57,1.5,2.05,4.08,4.45,6.5,1.8,2.15-2.35,.67-5.63,.02-8.39-1.99-8.45-8.4-17.81-5.33-24.9,3.24-7.51,12.08-11.61,18.34-17.41,2.12-1.96,5.24-2.91,6.18-8.15-7.83,0-15.29-.59-22.65,.16-7.98,.81-12.04-2.08-14.04-11.81-1.82-8.88-3.42-18.31-8.64-26.8-2.89,10.02-6.14,19.14-8.05,28.64-1.58,7.83-4.8,10.45-11.41,9.96-8.04-.59-16.13-.14-27.63-.14,9.35,8.08,15.15,13.8,21.53,18.41,6.58,4.76,7.25,9.83,4.87,18.38-2.47,8.88-8.44,17.35-5.03,27.73-.23-1.69-.67-2.82-2.16-1.1,.72,.3,1.43,.6,2.15,.9Zm624.66,208.18c1.62-1.56,3.33-3,4.83-4.7,12.89-14.56,25.98-22.46,40.52-2.57,1.5,2.05,4.08,4.45,6.5,1.8,2.15-2.35,.67-5.63,.02-8.39-1.99-8.45-8.4-17.81-5.33-24.9,3.24-7.51,12.08-11.61,18.34-17.41,2.12-1.96,5.24-2.91,6.18-8.15-7.83,0-15.29-.59-22.65,.16-7.98,.81-12.04-2.08-14.04-11.81-1.82-8.88-3.42-18.31-8.64-26.8-2.89,10.02-6.14,19.14-8.05,28.64-1.58,7.83-4.8,10.45-11.41,9.96-8.04-.59-16.13-.14-27.63-.14,9.35,8.08,15.15,13.79,21.53,18.41,6.58,4.76,7.25,9.83,4.87,18.38-2.47,8.88-8.44,17.35-5.04,27.73-.23-1.69-.67-2.82-2.16-1.1,.72,.3,1.43,.6,2.15,.9ZM390.91,259.76c1.62-1.56,3.33-3,4.83-4.7,12.89-14.56,25.98-22.46,40.52-2.57,1.5,2.05,4.08,4.45,6.5,1.8,2.15-2.35,.67-5.62,.02-8.39-1.99-8.45-8.4-17.81-5.33-24.9,3.24-7.51,12.08-11.61,18.34-17.41,2.12-1.96,5.24-2.91,6.18-8.15-7.83,0-15.29-.59-22.65,.16-7.98,.81-12.04-2.08-14.04-11.81-1.82-8.88-3.42-18.31-8.64-26.8-2.89,10.02-6.14,19.14-8.05,28.64-1.58,7.83-4.8,10.45-11.41,9.96-8.04-.59-16.13-.14-27.63-.14,9.35,8.08,15.15,13.79,21.53,18.41,6.58,4.76,7.25,9.83,4.87,18.38-2.47,8.88-8.44,17.35-5.04,27.73-.23-1.69-.67-2.82-2.16-1.1,.72,.3,1.43,.6,2.15,.9Zm624.66,208.18c1.62-1.56,3.33-3,4.83-4.7,12.89-14.56,25.98-22.46,40.52-2.57,1.5,2.05,4.08,4.45,6.5,1.8,2.15-2.35,.67-5.62,.02-8.39-1.99-8.45-8.4-17.81-5.33-24.9,3.24-7.51,12.08-11.61,18.34-17.41,2.12-1.96,5.23-2.91,6.18-8.15-7.83,0-15.29-.59-22.65,.16-7.98,.81-12.04-2.08-14.04-11.81-1.82-8.88-3.42-18.31-8.64-26.8-2.89,10.02-6.14,19.14-8.05,28.64-1.58,7.83-4.8,10.45-11.41,9.96-8.04-.59-16.13-.14-27.63-.14,9.35,8.08,15.15,13.79,21.53,18.41,6.58,4.76,7.25,9.83,4.87,18.38-2.47,8.88-8.44,17.35-5.04,27.73-.23-1.69-.67-2.82-2.16-1.1,.72,.3,1.43,.6,2.15,.9Zm0,416.35c1.62-1.56,3.33-3,4.83-4.7,12.89-14.56,25.98-22.46,40.52-2.57,1.5,2.05,4.08,4.45,6.5,1.8,2.15-2.35,.67-5.63,.02-8.39-1.99-8.45-8.39-17.81-5.33-24.9,3.24-7.51,12.08-11.61,18.34-17.41,2.12-1.96,5.24-2.91,6.18-8.15-7.83,0-15.29-.59-22.65,.16-7.98,.81-12.04-2.08-14.04-11.81-1.82-8.88-3.42-18.31-8.64-26.8-2.89,10.02-6.14,19.14-8.05,28.64-1.58,7.83-4.8,10.45-11.41,9.96-8.04-.59-16.13-.14-27.63-.14,9.35,8.08,15.15,13.8,21.53,18.41,6.58,4.76,7.25,9.83,4.87,18.38-2.47,8.88-8.44,17.35-5.03,27.73-.23-1.69-.67-2.82-2.16-1.1,.72,.3,1.43,.6,2.15,.9Zm0-624.53c1.62-1.56,3.33-3,4.84-4.7,12.88-14.56,25.98-22.46,40.52-2.57,1.5,2.05,4.08,4.45,6.5,1.8,2.15-2.35,.67-5.62,.02-8.39-1.99-8.45-8.39-17.81-5.33-24.9,3.24-7.51,12.08-11.61,18.34-17.41,2.12-1.96,5.24-2.91,6.18-8.15-7.83,0-15.29-.59-22.65,.16-7.98,.81-12.04-2.08-14.04-11.81-1.82-8.88-3.42-18.31-8.64-26.8-2.89,10.02-6.14,19.14-8.05,28.64-1.58,7.83-4.8,10.45-11.41,9.96-8.04-.59-16.13-.14-27.63-.14,9.35,8.08,15.15,13.79,21.53,18.41,6.58,4.76,7.25,9.83,4.87,18.38-2.47,8.88-8.44,17.35-5.04,27.73-.23-1.69-.67-2.82-2.16-1.1l2.15,.9Zm-155.61,208.4c.16-.91,2.72,.35,1.3-1.99-.44,.76-.88,1.52-1.32,2.28,.45-1.79,1.77-4.19,1.22-5.28-13.89-27.41-2.56-44.39,20.36-60.29-13.91,0-26.86,4.38-34.73-1.17-8.73-6.16-7.31-23.92-12.8-36.05-4.83,8.22-6.48,17.59-8.34,26.49-2.03,9.7-6.15,12.54-14.14,11.65-7.3-.81-14.71-.17-25.04-.17,3.65,3.5,4.81,4.66,6,5.74q23.35,21.18,13.33,53.15c4.09,2.83,7.07-.12,10.26-2.55q18.93-14.47,37.34,1.52c2.33,2.03,4.37,4.5,6.57,6.68ZM235.3,676.33c.16-.91,2.72,.35,1.3-1.99-.44,.76-.88,1.52-1.32,2.28,.45-1.79,1.77-4.19,1.22-5.28-13.89-27.41-2.56-44.39,18.35-59.98-28.24,8.2-43-4.74-43.88-40.32-6.47,11.01-8.12,20.38-9.98,29.28-2.03,9.7-6.15,12.54-14.14,11.65-7.3-.81-14.71-.17-25.04-.17,3.65,3.5,4.81,4.66,6,5.74q23.35,21.18,13.33,53.15c4.09,2.83,7.07-.12,10.26-2.55q18.93-14.47,37.34,1.52c2.33,2.03,4.37,4.5,6.57,6.68Zm624.66,208.18c.16-.91,2.72,.35,1.3-1.99-.44,.76-.88,1.52-1.32,2.28,.45-1.79,1.77-4.19,1.22-5.28-13.89-27.41-2.56-44.39,18.35-59.98-28.24,8.2-43-4.74-44.92-38.63-4.06,9.96-7.36,18.55-9,27.56-1.78,9.8-6.09,12.56-14.09,11.67-7.3-.81-14.71-.17-25.04-.17,3.67,3.52,4.81,4.66,6,5.74q23.35,21.18,13.33,53.15c4.09,2.84,7.07-.12,10.26-2.55q18.93-14.47,37.34,1.52c2.33,2.03,4.37,4.5,6.57,6.68ZM235.3,468.16c.16-.91,2.72,.35,1.3-1.99-.44,.76-.88,1.52-1.32,2.28,.45-1.79,1.77-4.19,1.22-5.28-13.89-27.41-2.56-44.39,18.35-59.98-28.24,8.2-43-4.74-43.88-40.32-6.47,11.01-8.12,20.38-9.98,29.28-2.03,9.7-6.15,12.54-14.14,11.65-7.3-.81-14.71-.17-25.04-.17,3.65,3.5,4.81,4.66,6,5.74q23.35,21.18,13.33,53.15c4.09,2.83,7.07-.12,10.26-2.55q18.93-14.47,37.34,1.52c2.33,2.03,4.37,4.5,6.57,6.68Zm0,416.35c.16-.91,2.72,.35,1.3-1.99-.44,.76-.88,1.52-1.32,2.28,.45-1.79,1.77-4.19,1.22-5.28-13.89-27.41-2.56-44.39,18.35-59.98-28.24,8.2-43-4.74-43.88-40.32-6.47,11.01-8.12,20.38-9.98,29.28-2.03,9.7-6.15,12.54-14.14,11.65-7.3-.81-14.71-.17-25.04-.17,3.67,3.52,4.81,4.66,6,5.74q23.35,21.18,13.33,53.15c4.09,2.84,7.07-.12,10.26-2.55q18.93-14.47,37.34,1.52c2.33,2.03,4.37,4.5,6.57,6.68Zm624.66-208.18c.16-.91,2.72,.35,1.3-1.99-.44,.76-.88,1.52-1.32,2.28,.45-1.79,1.77-4.19,1.22-5.28-13.89-27.41-2.56-44.39,20.36-60.29-13.91,0-26.86,4.38-34.73-1.17-8.73-6.16-7.31-23.92-12.8-36.05-4.83,8.22-6.48,17.59-8.34,26.49-2.03,9.7-6.15,12.54-14.14,11.65-7.3-.81-14.71-.17-25.04-.17,3.65,3.5,4.81,4.66,6,5.74q23.35,21.18,13.33,53.15c4.09,2.83,7.07-.12,10.26-2.55q18.93-14.47,37.34,1.52c2.33,2.03,4.37,4.5,6.57,6.68Zm0-416.35c.16-.91,2.72,.35,1.3-1.99-.44,.76-.88,1.52-1.32,2.28,.45-1.79,1.77-4.19,1.22-5.28-13.89-27.41-2.56-44.39,18.35-59.98-28.24,8.2-43-4.74-43.88-40.32-6.47,11.01-8.12,20.38-9.98,29.28-2.03,9.7-6.15,12.54-14.14,11.65-7.3-.81-14.71-.17-25.04-.17,3.67,3.52,4.81,4.66,6,5.74q23.35,21.18,13.35,53.1,7.21-.24,10.23-2.53,18.96-14.42,37.35,1.55c2.33,2.03,4.37,4.5,6.57,6.68Zm-624.66,0c.16-.91,2.72,.35,1.3-1.99-.44,.76-.88,1.52-1.32,2.28,.45-1.79,1.77-4.19,1.22-5.28-13.89-27.41-2.56-44.39,18.35-59.98-28.24,8.2-43-4.74-43.88-40.32-6.47,11.01-8.12,20.38-9.98,29.28-2.03,9.7-6.15,12.54-14.14,11.65-7.3-.81-14.71-.17-25.04-.17,3.67,3.52,4.81,4.66,6,5.74q23.35,21.18,13.33,53.15c4.09,2.83,7.07-.12,10.26-2.55q18.93-14.47,37.34,1.52c2.33,2.03,4.37,4.5,6.57,6.68Zm-103.61,311.48c.22-.14,.43-.27,.65-.41-.32,.2-.63,.39-.95,.59,2.85-10.44-2.8-18.95-5.28-27.88-2.26-8.15-1.1-12.61,4.66-17.29,6.5-5.28,13.83-9.72,19.54-18.78-5.82,0-10.02,0-14.22,0q-19.85-.01-26.12-22.74c-1.32-4.77-2.66-9.53-4.53-16.21-1.71,3.77-2.66,5.35-3.19,7.1-3.06,10.22-3.6,24.32-9.7,29.63-6.1,5.31-17.73,1.8-26.93,2.27-1.86,.1-4.29-1.03-5.62,4.26,25.99,9.54,28.91,29.79,16.98,55.96-.28,.62,.33,1.81,1.18,5.85,17.7-29.36,35.67-23.77,53.53-2.35Zm987.43-.27c17.46-21.03,35.1-24.24,53.06-.81,.21,.27,.81,.13,2.44,.34-3.18-12.11-9.84-24.42-8.32-35.13,1.71-12.09,15.77-15.75,23.49-24.41,.41-.46,.29-1.59,.57-3.47-7.6,0-15.11-.73-22.48,.19-8.32,1.04-11.8-2.94-13.95-12.02-2.05-8.67-2.94-18.23-8.79-26.05-2.73,9.72-5.72,18.47-7.58,27.54-1.69,8.24-5.14,11.25-12.35,10.52-7.71-.78-15.53-.18-26.92-.18,8.91,7.7,14.58,13.27,20.81,17.78,6.82,4.94,8.48,10.12,5.44,19.47-2.7,8.31-7.55,16.63-5.25,26.46-.42,.05-.85,.09-1.27,.14,.37-.12,.73-.24,1.1-.36Zm0-208.18c17.46-21.03,35.1-24.24,53.06-.81,.21,.27,.81,.13,4.11,.54-16.21-27.34-9.95-46.81,13.51-59.78,.37-.2,.28-1.56,.56-3.44-7.6,0-15.11-.73-22.48,.19-8.32,1.04-11.8-2.94-13.95-12.02-2.05-8.67-2.94-18.23-8.79-26.05-2.73,9.72-5.72,18.47-7.58,27.54-1.69,8.24-5.14,11.25-12.35,10.52-7.71-.78-15.53-.18-26.92-.18,8.91,7.7,14.58,13.27,20.81,17.78,6.82,4.94,8.47,10.12,5.44,19.47-2.7,8.31-7.55,16.63-5.25,26.46-.42,.05-.85,.09-1.27,.14,.37-.12,.73-.24,1.1-.36Zm-362.77,.27c.22-.14,.43-.27,.65-.41-.32,.2-.63,.39-.95,.59,2.85-10.44-2.8-18.95-5.28-27.88-2.26-8.15-1.1-12.61,4.66-17.29,6.5-5.28,13.83-9.72,19.54-18.78-5.82,0-10.02,0-14.22,0q-19.85-.01-26.12-22.74c-1.32-4.77-2.66-9.53-4.53-16.21-1.72,3.78-2.67,5.35-3.19,7.1-3.06,10.22-3.6,24.32-9.7,29.63-6.1,5.31-17.73,1.8-26.93,2.27-1.86,.1-4.29-1.03-5.18,2.49,8.24,7.5,19.95,13.15,23.78,23.03,3.96,10.2-5.04,22.78-7.26,34.67-.16,.83,.34,1.84,1.19,5.88,17.7-29.36,35.67-23.77,53.53-2.35Zm-261.9-.27c17.46-21.03,35.1-24.24,53.06-.81,.21,.27,.81,.13,4.11,.54-16.21-27.34-9.95-46.81,13.51-59.78,.37-.2,.28-1.56,.57-3.44-7.6,0-15.11-.73-22.48,.19-8.32,1.04-11.8-2.94-13.95-12.02-2.05-8.67-2.94-18.23-8.79-26.05-2.73,9.72-5.72,18.47-7.58,27.54-1.69,8.24-5.14,11.25-12.35,10.52-7.71-.78-15.53-.18-26.92-.18,8.91,7.7,14.58,13.27,20.81,17.78,6.82,4.94,8.48,10.12,5.44,19.47-2.7,8.31-7.55,16.63-5.25,26.46-.42,.05-.85,.09-1.27,.14,.37-.12,.73-.24,1.1-.36Zm-362.77,.27c.22-.14,.43-.27,.65-.41-.32,.2-.63,.39-.95,.59,2.85-10.44-2.8-18.95-5.28-27.88-2.26-8.15-1.1-12.61,4.66-17.29,6.5-5.28,13.83-9.72,19.54-18.78-5.82,0-10.02,0-14.22,0q-19.85-.01-26.12-22.74c-1.32-4.77-2.66-9.53-4.53-16.21-1.71,3.77-2.66,5.35-3.19,7.1-3.06,10.22-3.6,24.32-9.7,29.63-6.1,5.31-17.73,1.8-26.93,2.27-1.86,.1-4.29-1.03-5.62,4.26,25.99,9.54,28.91,29.79,16.98,55.96-.28,.62,.33,1.81,1.18,5.85,17.7-29.36,35.67-23.77,53.53-2.35Zm987.43,624.26c17.46-21.03,35.1-24.24,53.06-.81,.21,.27,.81,.13,2.44,.34-3.18-12.11-9.84-24.42-8.32-35.13,1.71-12.09,15.77-15.75,23.49-24.41,.41-.46,.29-1.59,.57-3.47-7.6,0-15.11-.73-22.48,.19-8.32,1.04-11.8-2.94-13.95-12.02-2.05-8.67-2.94-18.23-8.79-26.05-2.73,9.72-5.72,18.47-7.58,27.54-1.69,8.24-5.14,11.25-12.35,10.52-7.71-.78-15.53-.18-26.92-.18,8.91,7.7,14.58,13.27,20.81,17.78,6.82,4.94,8.47,10.12,5.44,19.47-2.7,8.31-7.55,16.63-5.25,26.46-.42,.05-.85,.09-1.27,.14,.37-.12,.73-.24,1.1-.36Zm-362.76,.27c.22-.14,.43-.27,.65-.41-.32,.2-.63,.39-.95,.59,2.85-10.44-2.8-18.95-5.28-27.88-2.26-8.15-1.1-12.61,4.66-17.29,6.5-5.28,13.83-9.72,19.54-18.77-5.82,0-10.02,0-14.22,0q-19.85-.01-26.12-22.74c-1.32-4.77-2.66-9.53-4.53-16.21-1.71,3.77-2.66,5.35-3.19,7.1-3.06,10.22-3.6,24.32-9.7,29.63-6.1,5.31-17.73,1.8-26.93,2.27-1.86,.1-4.29-1.03-5.62,4.26,25.99,9.54,28.91,29.79,16.98,55.96-.28,.62,.33,1.81,1.18,5.85,17.7-29.36,35.67-23.77,53.53-2.36Zm-624.66,0c.22-.14,.43-.27,.65-.41-.32,.2-.63,.39-.95,.59,2.85-10.44-2.8-18.95-5.28-27.88-2.26-8.15-1.1-12.61,4.66-17.29,6.5-5.28,13.82-9.72,19.54-18.78-5.82,0-10.02,0-14.22,0q-19.85-.01-26.12-22.74c-1.32-4.77-2.66-9.53-4.53-16.21-1.72,3.78-2.67,5.35-3.19,7.1-3.06,10.22-3.6,24.32-9.7,29.63-6.1,5.31-17.73,1.8-26.93,2.27-1.86,.1-4.29-1.03-5.62,4.25,25.99,9.54,28.91,29.79,16.98,55.96-.28,.62,.33,1.81,1.18,5.85,17.7-29.36,35.67-23.77,53.53-2.35Zm987.43-208.44c17.46-21.03,35.1-24.24,53.06-.81,.21,.27,.81,.13,2.44,.34-3.18-12.11-9.84-24.42-8.32-35.13,1.71-12.09,15.77-15.75,23.49-24.41,.41-.46,.29-1.59,.57-3.47-7.59,0-15.11-.73-22.48,.19-8.32,1.04-11.8-2.94-13.95-12.02-2.05-8.67-2.94-18.23-8.79-26.05-2.73,9.72-5.72,18.47-7.58,27.54-1.69,8.24-5.14,11.25-12.35,10.52-7.71-.78-15.53-.18-26.92-.18,8.91,7.7,14.58,13.27,20.81,17.78,6.82,4.94,8.47,10.12,5.44,19.47-2.7,8.31-7.55,16.63-5.25,26.46-.42,.05-.85,.09-1.27,.14,.37-.12,.73-.24,1.1-.36Zm-362.76,.27c.22-.14,.43-.27,.65-.41-.32,.2-.63,.39-.95,.59,2.85-10.44-2.8-18.95-5.28-27.88-2.26-8.15-1.1-12.61,4.66-17.29,6.5-5.28,13.83-9.72,19.54-18.77-5.82,0-10.02,0-14.22,0q-19.85-.01-26.12-22.74c-1.32-4.77-2.66-9.53-4.53-16.21-1.71,3.77-2.66,5.35-3.19,7.1-3.06,10.22-3.6,24.32-9.7,29.63-6.1,5.31-17.73,1.8-26.93,2.27-1.86,.1-4.29-1.03-5.62,4.26,25.99,9.53,28.91,29.79,16.98,55.96-.28,.62,.33,1.81,1.38,6.82,17.51-31.69,35.46-24.18,53.32-3.32Zm-261.9-.27c17.46-21.03,35.1-24.24,53.06-.81,.21,.27,.81,.13,4.11,.54-16.21-27.34-9.95-46.81,13.51-59.78,.37-.2,.28-1.56,.57-3.44-7.6,0-15.11-.73-22.48,.19-8.32,1.04-11.8-2.94-13.95-12.02-2.05-8.67-2.94-18.23-8.79-26.05-2.73,9.72-5.72,18.47-7.58,27.54-1.69,8.24-5.14,11.25-12.35,10.52-7.71-.78-15.53-.18-26.92-.18,8.91,7.7,14.58,13.27,20.8,17.78,6.82,4.94,8.48,10.12,5.44,19.47-2.7,8.31-7.55,16.63-5.25,26.46-.42,.05-.85,.09-1.27,.14,.37-.12,.73-.24,1.1-.36Zm-362.77,.27c.22-.14,.43-.27,.65-.41-.32,.2-.63,.39-.95,.59,2.85-10.44-2.8-18.95-5.28-27.88-2.26-8.15-1.1-12.61,4.66-17.29,6.5-5.28,13.83-9.72,19.54-18.78-5.82,0-10.02,0-14.22,0q-19.85-.01-26.12-22.74c-1.32-4.77-2.66-9.53-4.53-16.21-1.71,3.77-2.66,5.35-3.19,7.1-3.06,10.22-3.6,24.32-9.7,29.63-6.1,5.31-17.73,1.8-26.93,2.27-1.86,.1-4.29-1.03-5.62,4.26,25.99,9.54,28.91,29.79,16.98,55.96-.28,.62,.33,1.81,1.18,5.85,17.7-29.36,35.67-23.77,53.53-2.35Zm362.77,207.91c17.46-21.03,35.1-24.24,53.06-.81,.21,.27,.81,.13,4.11,.54-16.21-27.34-9.95-46.81,13.51-59.78,.37-.2,.28-1.56,.57-3.44-7.6,0-15.11-.73-22.48,.19-8.32,1.04-11.8-2.94-13.95-12.02-2.05-8.67-2.94-18.23-8.79-26.05-2.73,9.72-5.72,18.47-7.58,27.53-1.69,8.24-5.14,11.25-12.35,10.52-7.71-.78-15.53-.18-26.92-.18,8.91,7.7,14.58,13.27,20.81,17.78,6.82,4.94,8.48,10.12,5.44,19.47-2.7,8.31-7.55,16.63-5.25,26.46-.42,.05-.85,.09-1.27,.14,.37-.12,.73-.24,1.1-.36Zm261.9-416.08c.22-.14,.43-.27,.65-.41-.32,.2-.63,.39-.95,.59,2.85-10.44-2.8-18.95-5.28-27.88-2.26-8.15-1.1-12.61,4.66-17.29,6.5-5.28,13.83-9.72,19.54-18.78-5.82,0-10.02,0-14.22,0q-19.85-.01-26.12-22.74c-1.32-4.77-2.66-9.53-4.53-16.21-1.71,3.77-2.66,5.35-3.19,7.1-3.06,10.22-3.6,24.32-9.7,29.63-6.1,5.31-17.73,1.8-26.93,2.27-1.86,.1-4.29-1.03-5.62,4.25,25.99,9.54,28.91,29.79,16.98,55.96-.28,.62,.33,1.81,1.38,6.82,17.51-31.69,35.46-24.18,53.32-3.32Zm-261.9-.27c17.46-21.03,35.1-24.24,53.06-.81,.21,.27,.81,.13,4.11,.54-16.21-27.34-9.95-46.81,13.51-59.78,.37-.2,.28-1.56,.56-3.44-7.6,0-15.11-.73-22.48,.19-8.32,1.04-11.8-2.94-13.95-12.02-2.05-8.67-2.94-18.23-8.79-26.05-2.73,9.72-5.72,18.47-7.58,27.54-1.69,8.24-5.14,11.25-12.35,10.52-7.71-.78-15.53-.18-26.92-.18,8.91,7.7,14.58,13.27,20.81,17.78,6.82,4.94,8.47,10.12,5.44,19.47-2.7,8.31-7.55,16.63-5.25,26.46-.42,.05-.85,.09-1.27,.14,.37-.12,.73-.24,1.1-.36ZM1119.12,154.84c17.46-21.03,35.1-24.24,53.06-.81,.21,.27,.81,.13,4.11,.54-16.21-27.34-9.95-46.81,13.51-59.78,.37-.2,.28-1.56,.56-3.44-7.6,0-15.11-.73-22.48,.19-8.32,1.04-11.8-2.94-13.95-12.02-2.05-8.67-2.94-18.23-8.79-26.05-2.73,9.72-5.72,18.47-7.58,27.54-1.69,8.24-5.14,11.25-12.35,10.52-7.71-.78-15.53-.18-26.92-.18,8.91,7.7,14.58,13.27,20.81,17.78,6.82,4.94,8.48,10.12,5.44,19.47-2.7,8.31-7.55,16.63-5.25,26.46-.42,.05-.85,.09-1.27,.14,.37-.12,.73-.24,1.1-.36Zm-362.77,.27c.22-.14,.43-.27,.65-.41-.32,.2-.63,.39-.95,.59,2.85-10.44-2.8-18.95-5.28-27.88-2.26-8.15-1.1-12.61,4.66-17.29,6.5-5.28,13.83-9.72,19.54-18.78-5.82,0-10.02,0-14.22,0q-19.85-.01-26.12-22.74c-1.32-4.77-2.66-9.53-4.53-16.21-1.71,3.77-2.66,5.35-3.19,7.1-3.06,10.22-3.6,24.32-9.7,29.63-6.1,5.31-17.73,1.8-26.93,2.27-1.86,.1-4.29-1.03-5.62,4.25,25.99,9.54,28.91,29.79,16.98,55.96-.28,.62,.33,1.81,1.18,5.85,17.7-29.36,35.67-23.77,53.53-2.35Zm-261.9-.27c17.46-21.03,35.1-24.24,53.06-.81,.21,.27,.81,.13,4.11,.54-16.21-27.34-9.95-46.81,13.51-59.78,.37-.2,.28-1.56,.57-3.44-7.6,0-15.11-.73-22.48,.19-8.32,1.04-11.8-2.94-13.95-12.02-2.05-8.67-2.94-18.23-8.79-26.05-2.73,9.72-5.72,18.47-7.58,27.54-1.69,8.24-5.14,11.25-12.35,10.52-7.71-.78-15.53-.18-26.92-.18,8.91,7.7,14.58,13.27,20.81,17.78,6.82,4.94,8.48,10.12,5.44,19.47-2.7,8.31-7.55,16.63-5.25,26.46-.42,.05-.85,.09-1.27,.14,.37-.12,.73-.24,1.1-.36Zm-362.76,.27c.22-.14,.43-.27,.65-.41-.32,.2-.63,.39-.95,.59,2.85-10.44-2.8-18.95-5.28-27.88-2.26-8.15-1.1-12.61,4.66-17.29,6.5-5.28,13.83-9.72,19.54-18.78-5.82,0-10.02,0-14.22,0q-19.85-.01-26.12-22.74c-1.32-4.77-2.66-9.53-4.53-16.21-1.71,3.77-2.66,5.35-3.19,7.1-3.06,10.22-3.6,24.32-9.7,29.63-6.1,5.31-17.73,1.8-26.93,2.27-1.86,.1-4.29-1.03-5.62,4.26,25.99,9.54,28.91,29.79,16.98,55.96-.28,.62,.33,1.81,1.38,6.82,17.51-31.69,35.46-24.18,53.32-3.32Zm466.5,733.21c18.3-31.64,35.7-25.52,53.15-5.88,.24,.27,.81,.15,2.66,.41-2.32-8.9-3.81-17.56-6.83-25.41-3.48-9.01-1.7-14.51,5.2-19.53,6.41-4.66,12.24-10.43,18.32-15.72-11.71-3.09-24.1,.98-32.12-4.23-8.24-5.35-7.35-21.91-11.44-33.12-.23-.62-1.3-.81-2.78-1.66-2.33,8.4-5.05,16.55-6.82,24.97-1.89,9.04-5.62,12.87-14,12.09-7.43-.7-15.26-1.74-23.85,1.66,5.34,4.48,9.17,8.55,13.6,11.25,11.61,7.09,15.24,16.51,8.88,30.89-2.4,5.44-4.6,11.54-3.96,24.26Zm26.91-732.44c-3.29,11.77-6.19,20.44-8.06,29.4-1.72,8.25-5.38,11.02-12.47,10.32-7.73-.76-15.55-.17-26.69-.17,8.76,7.63,14.38,13.34,20.66,17.77,7,4.95,8.77,10.45,5.36,19.47-3,7.91-4.55,16.57-7.81,28.94,8.89-7.56,15.26-12.17,20.8-17.89,6.06-6.25,11-6.75,17.21-.16,5.48,5.82,11.94,10.37,20.12,17.29-3.48-15.33-9.99-28.46-7.97-39.41,2.08-11.26,16.99-14.03,24.11-25.3-11.18-.59-24.55,3.22-31.76-2.94-7.31-6.23-8.53-22.33-13.48-37.33Zm28.05,312.13c.05-10.9-3.35-19.07-6.1-27.01-3.19-9.22-1.3-14.35,5.37-19.56,6.2-4.85,13.16-9.09,19.22-18.75-12.77,0-25.18,4.1-33.16-1.14-8.17-5.37-7.3-21.94-11.43-33.14-.22-.6-1.33-.75-2.76-1.49-2.32,8.38-5.05,16.56-6.79,25.02-1.89,9.16-5.78,12.69-14.08,11.98-7.37-.64-15.18-1.96-23.44,1.79,6.47,5.56,11.6,10.84,17.41,14.74,7.94,5.33,10.24,11.45,6.09,21.67-2.99,7.35-4.22,15.68-7.21,27.39,7.97-6.69,13.72-10.57,18.47-15.73,7.32-7.96,13.65-9.3,21.29-.36,4.64,5.43,10.67,9.22,17.12,14.61Zm-71.8,143.77c-.15,.97-.3,1.94-.44,2.9,3.74,3.19,7.19,7.08,11.28,9.45,12.79,7.41,16.39,17.62,9.58,33.11-2.17,4.94-4.94,10.83-2.68,21.29,17.36-29.88,34.76-24.05,52.22-4.3,.24,.28,.81,.15,2.68,.43-2.31-8.9-3.79-17.55-6.8-25.38-3.45-8.98-1.77-14.52,5.16-19.54,6.43-4.65,12.27-10.42,18.37-15.69-11.71-3.12-24.08,.95-32.11-4.25-8.26-5.35-7.37-21.89-11.45-33.11-.23-.63-1.29-.83-2.79-1.72-2.34,8.4-5.05,16.54-6.82,24.96-1.9,9-5.56,13.19-13.98,12.05-7.31-.99-14.8-.21-22.21-.21Zm404.02-309.28l-3.58-3.57c-10.48,0-23.1,4.26-30.86-1.14-8.52-5.93-7.35-23.08-12.08-34.59-.19-.47-1.02-.57-1.94-1.03-2.51,8.59-5.68,16.78-7.19,25.38-1.68,9.58-5.54,13.08-13.78,12.14-7.26-.83-14.64-.17-24.84-.17,10.87,10.29,23.9,16.62,26.22,26.44,2.58,10.9-4.63,24.99-7.82,38.75,7.34-6.21,14.44-11.48,20.76-17.8,5.43-5.43,9.53-5.92,15.12-.12,6.17,6.4,13.32,11.5,20.04,17.16-12.72-28.13-9.5-49.58,19.94-61.44ZM283.72,157.17c11.05-8.99,19.57-21.03,29.08-22.25,9.76-1.24,17.39,13.64,26.93,19.7,.42,.26,1.12-.1,2.05-.21-.66-2.6-1.23-4.92-1.84-7.23q-7.91-30.14,14.01-49.68c1.46-1.31,3.95-1.95,3.19-7.51-26.66,10.35-39.12-4.87-42.71-34.48-.07-.61-.98-1.09-2.03-2.17-2.75,9.67-5.87,18.84-7.89,28.34-1.63,7.65-4.87,10.06-11.45,9.89-7.98-.19-16.24-1.83-25.4,1.77,7.3,6.3,13.15,12,19.55,16.66,5.91,4.3,7.9,8.62,4.84,16.78-3.33,8.9-5.17,18.58-8.32,30.39ZM984.41,508.02c-30.07,9.5-41.34-7.67-45.46-36.5-.06-.45-1.01-.72-1.82-1.25-.86,2.43-1.77,4.64-2.43,6.96q-8.54,29.76-34.96,30.53c-1.89,.06-4.18-1.06-6.1,2.33,8.3,7.82,21.33,14.1,23.63,23.87,2.57,10.91-4.61,24.99-7.84,38.96,6.73-5.68,13.12-10.26,18.68-15.98,6.64-6.85,12.26-8.15,19.26-.43,5.43,5.99,12.01,10.53,18.07,15.72-14.1-28.58-8.69-49.25,18.98-64.21Zm-93.29-416.67c10.83,10.22,23.86,16.52,26.17,26.31,2.57,10.9-4.62,24.99-7.84,38.91,7.04-5.97,13.82-10.83,19.69-16.91,6.07-6.3,10.92-6.93,17.2-.28,5.84,6.18,12.7,11.02,20.96,18.01-3.24-12.22-5.31-22.25-8.6-31.71-2.39-6.88-1.32-10.57,3.94-14.48,7.12-5.29,13.64-11.7,20.42-17.63,.24-1.55,.48-3.09,.73-4.64-29.59,12.35-40.66-5.13-44.86-33.8-.06-.43-1.01-.67-1.91-1.23-1.73,5.76-4.27,11.18-4.91,16.89-1.9,16.8-9.07,23.9-23.6,20.72-4.67-1.02-9.64-.16-17.37-.16Zm46.49,792.74c-3.35,11.84-6.5,21.02-8.47,30.54-1.64,7.87-5.21,9.7-11.61,9.66-7.87-.05-16.07-2.09-27.75,3.34,30.88,10.61,31.16,31.78,19.79,57.36-.33,.74,.04,1.9,.11,2.87,.29,.02,.72,.21,.86,.05,18.45-20.87,36.85-27.54,55.61,2.26-1.81-11.21-3.78-20.22-6.76-28.73-2.99-8.55-2.42-14.3,5.12-19.23,6.63-4.34,12.38-10.55,18.51-15.94,.64-2.06,1.29-4.11,1.93-6.17-33.47,17.47-40.54-7.14-47.33-36.01Zm-669.52,37.74c.31,1.56,.62,3.12,.93,4.67,8.32,7.89,21.18,14.19,23.69,24.11,2.6,10.24-4.88,24.01-7.91,36.25-.1,.4,.2,.94,.46,2.05,7.27-6.19,14.61-11.94,21.43-18.43,4.71-4.48,8.3-4.65,13.08,0,6.65,6.48,13.95,12.02,22.82,19.52-3.27-12.35-5.29-22.44-8.64-31.86-2.54-7.12-.82-10.57,4.19-14.38,6.98-5.31,13.45-11.58,20.13-17.43,.19-1.57,.38-3.14,.58-4.71-28.69,12.08-40.17-4.1-44.2-32.65-.12-.83-.32-3.05-3.84-.78-1.46,28.84-13.25,45.15-42.71,33.64Zm74.19-557.67c-2.37-8.99-3.43-16.49-6.25-22.93-5.19-11.84-3.47-19.81,6.76-26.11,5.62-3.46,10.4-8.84,15.55-13.35,.32-1.5,.64-3,.96-4.5-29.04,11.48-41.19-4.25-44.9-33.67-.07-.56-1-.98-2.05-1.94-2.73,9.63-5.86,18.81-7.86,28.31-1.63,7.75-5.02,9.89-11.52,9.79-7.93-.12-16.17-1.97-25.17,1.91,7.22,6.22,13.06,11.96,19.48,16.56,6.04,4.33,7.67,8.79,4.73,16.83-3.27,8.94-5.09,18.61-7.54,27.96,19.11-26.48,37.15-21.48,55.33-.15,.28,.32,.76,.41,2.47,1.28Zm-.11,209.19c-14.38-29.7-10.71-50.97,17.38-64.02-7.68-1.63-13.46-2.4-19.03-1.47-11.83,1.97-18.92-2.37-20.91-17.18-.96-7.16-3.75-13.98-6.45-23.58-3.48,12.31-6.56,21.94-8.88,31.81-1.62,6.9-4.62,9.44-10.75,8.95-8.08-.65-16.23-.16-24.36-.16-1.14,1.14-2.28,2.28-3.42,3.42,30.1,10.82,30.43,32.36,19.06,58.18-.27,.62,.25,1.73,.84,5.04,17.83-26.73,36.2-29.13,56.51-.99Zm624.84,207.91c-15.17-28.91-9.35-48.5,14.34-61.78,.46-.26,.52-1.5,1.18-3.61-7.78,0-15.24-.59-22.59,.16-7.99,.82-12.29-1.91-13.99-11.83-1.54-9-4.94-17.55-8.12-28.32-2.16,7.14-3.78,12.18-5.21,17.28-6.38,22.68-6.36,22.58-25.96,22.79-4.29,.04-8.9-1.34-16.34,3.46,30.7,10.68,30.17,32.55,19.13,58.28-.22,.52,.38,1.53,1.4,5.25,17.51-29.52,35.91-27.23,56.16-1.69Zm-699.04-67.77c.28,1.73,.56,3.46,.84,5.18,5.58,4.92,10.74,10.76,16.83,14.54,8.69,5.4,8.95,12.19,5.56,21.65-2.74,7.65-4.33,15.88-6.39,23.86-.1,.4,.2,.94,.46,2.01,7.27-6.2,14.63-11.94,21.45-18.47,4.74-4.53,8.33-4.53,13.08,.07,6.65,6.45,13.93,11.98,20.94,17.91-13.61-28.53-8.55-49.31,19.34-63.69-29.4,6.78-44.64-5.53-44.76-40.87-2.55,3.24-3.41,3.81-3.51,4.53-3.91,28.25-14.64,45.51-43.84,33.27Z"/>
    <path class="cls-3" d="M598.19,888.32c-.64-12.72,1.56-18.83,3.96-24.26,6.36-14.38,2.73-23.81-8.88-30.89-4.43-2.7-8.26-6.77-13.6-11.25,8.59-3.4,16.42-2.36,23.85-1.66,8.38,.79,12.11-3.05,14-12.09,1.77-8.43,4.48-16.58,6.82-24.97,1.48,.85,2.55,1.04,2.78,1.66,4.09,11.22,3.21,27.77,11.44,33.12,8.02,5.21,20.41,1.13,32.12,4.23-6.08,5.28-11.91,11.06-18.32,15.72-6.9,5.01-8.67,10.52-5.2,19.53,3.03,7.84,4.51,16.51,6.83,25.41-1.85-.26-2.42-.14-2.66-.41-17.45-19.64-34.85-25.76-53.15,5.88Z"/>
    <path class="cls-3" d="M625.1,155.88c4.95,15,6.18,31.1,13.48,37.33,7.22,6.16,20.58,2.35,31.76,2.94-7.11,11.27-22.03,14.04-24.11,25.3-2.02,10.95,4.49,24.08,7.97,39.41-8.17-6.92-14.64-11.47-20.12-17.29-6.21-6.6-11.15-6.1-17.21,.16-5.54,5.72-11.9,10.33-20.8,17.89,3.25-12.36,4.81-21.03,7.81-28.94,3.42-9.02,1.65-14.52-5.36-19.47-6.28-4.44-11.9-10.15-20.66-17.77,11.15,0,18.97-.59,26.69,.17,7.1,.7,10.75-2.07,12.47-10.32,1.87-8.96,4.78-17.63,8.06-29.4Z"/>
    <path class="cls-3" d="M653.15,468.02c-6.44-5.39-12.47-9.18-17.12-14.61-7.64-8.94-13.97-7.6-21.29,.36-4.74,5.16-10.5,9.04-18.47,15.73,2.99-11.71,4.22-20.04,7.21-27.39,4.15-10.22,1.86-16.34-6.09-21.67-5.8-3.9-10.93-9.18-17.41-14.74,8.26-3.76,16.07-2.43,23.44-1.79,8.3,.72,12.19-2.82,14.08-11.98,1.74-8.46,4.47-16.64,6.79-25.02,1.44,.74,2.54,.89,2.76,1.49,4.13,11.2,3.26,27.77,11.43,33.14,7.97,5.24,20.39,1.14,33.16,1.14-6.07,9.66-13.02,13.9-19.22,18.75-6.67,5.22-8.57,10.35-5.37,19.56,2.75,7.94,6.15,16.11,6.1,27.01Z"/>
    <path class="cls-3" d="M581.35,611.79c7.41,0,14.9-.78,22.21,.21,8.41,1.14,12.08-3.05,13.98-12.05,1.77-8.42,4.49-16.56,6.82-24.96,1.49,.89,2.56,1.1,2.79,1.72,4.07,11.22,3.19,27.76,11.45,33.11,8.03,5.2,20.4,1.13,32.11,4.25-6.1,5.28-11.94,11.04-18.37,15.69-6.93,5.02-8.61,10.56-5.16,19.54,3.01,7.83,4.49,16.48,6.8,25.38-1.87-.28-2.44-.16-2.68-.43-17.46-19.75-34.86-25.59-52.22,4.3-2.26-10.46,.51-16.35,2.68-21.29,6.81-15.49,3.21-25.7-9.58-33.11-4.09-2.37-7.53-6.26-11.28-9.45,.15-.97,.3-1.94,.44-2.9Z"/>
    <path class="cls-4" d="M985.37,302.51c-29.43,11.86-32.66,33.31-19.94,61.44-6.72-5.66-13.87-10.76-20.04-17.16-5.59-5.79-9.69-5.31-15.12,.12-6.32,6.33-13.42,11.59-20.76,17.8,3.19-13.75,10.39-27.85,7.82-38.75-2.32-9.83-15.36-16.15-26.22-26.44,10.2,0,17.58-.66,24.84,.17,8.24,.94,12.1-2.56,13.78-12.14,1.51-8.6,4.69-16.79,7.19-25.38,.91,.46,1.75,.56,1.94,1.03,4.73,11.51,3.56,28.65,12.08,34.59,7.76,5.4,20.38,1.14,30.86,1.14l3.58,3.57Z"/>
    <path class="cls-4" d="M283.72,157.17c3.15-11.81,4.99-21.49,8.32-30.39,3.06-8.16,1.07-12.48-4.84-16.78-6.4-4.66-12.24-10.36-19.55-16.66,9.17-3.6,17.43-1.97,25.4-1.77,6.59,.16,9.83-2.24,11.45-9.89,2.02-9.5,5.14-18.68,7.89-28.34,1.05,1.09,1.96,1.56,2.03,2.17,3.59,29.61,16.05,44.83,42.71,34.48,.77,5.57-1.73,6.21-3.19,7.51q-21.91,19.56-14.01,49.68c.61,2.31,1.18,4.63,1.84,7.23-.93,.12-1.64,.48-2.05,.21-9.55-6.06-17.17-20.94-26.93-19.7-9.52,1.21-18.04,13.26-29.08,22.25Z"/>
    <path class="cls-4" d="M984.41,508.02c-27.67,14.96-33.08,35.63-18.98,64.21-6.07-5.19-12.64-9.73-18.07-15.72-7-7.72-12.61-6.41-19.26,.43-5.55,5.72-11.95,10.3-18.68,15.98,3.23-13.97,10.41-28.05,7.84-38.96-2.3-9.77-15.34-16.05-23.63-23.87,1.92-3.39,4.21-2.27,6.1-2.33q26.43-.8,34.96-30.53c.66-2.31,1.58-4.53,2.43-6.96,.81,.53,1.76,.8,1.82,1.25,4.12,28.82,15.39,45.99,45.46,36.5Z"/>
    <path class="cls-4" d="M891.12,91.35c7.73,0,12.7-.86,17.37,.16,14.53,3.18,21.7-3.92,23.6-20.72,.65-5.71,3.18-11.13,4.91-16.89,.9,.56,1.85,.8,1.91,1.23,4.2,28.67,15.27,46.15,44.86,33.8-.24,1.55-.48,3.09-.73,4.64-6.78,5.93-13.3,12.34-20.42,17.63-5.26,3.91-6.34,7.59-3.94,14.48,3.29,9.45,5.36,19.49,8.6,31.71-8.25-6.99-15.12-11.83-20.96-18.01-6.28-6.64-11.12-6.02-17.2,.28-5.86,6.08-12.64,10.95-19.69,16.91,3.22-13.92,10.41-28.01,7.84-38.91-2.31-9.79-15.34-16.08-26.17-26.31Z"/>
    <path class="cls-4" d="M937.61,884.08c6.8,28.86,13.87,53.47,47.33,36.01-.64,2.06-1.29,4.11-1.93,6.17-6.14,5.39-11.88,11.6-18.51,15.94-7.54,4.93-8.11,10.68-5.12,19.23,2.98,8.51,4.95,17.51,6.76,28.73-18.76-29.8-37.16-23.13-55.61-2.26-.14,.16-.57-.02-.88-.05-.06-.97-.42-2.13-.1-2.87,11.37-25.58,11.08-46.75-19.79-57.36,11.67-5.43,19.87-3.4,27.75-3.34,6.4,.04,9.98-1.79,11.61-9.66,1.98-9.52,5.12-18.7,8.47-30.54Z"/>
    <path class="cls-4" d="M268.1,921.83c29.47,11.51,41.25-4.81,42.71-33.64,3.52-2.27,3.72-.05,3.84,.78,4.03,28.56,15.51,44.74,44.2,32.65-.19,1.57-.38,3.14-.58,4.71-6.68,5.86-13.15,12.12-20.13,17.43-5.01,3.81-6.73,7.27-4.19,14.38,3.36,9.42,5.37,19.5,8.64,31.86-8.87-7.5-16.17-13.04-22.82-19.52-4.78-4.66-8.37-4.49-13.08,0-6.82,6.49-14.16,12.24-21.43,18.43-.26-1.11-.56-1.65-.46-2.05,3.03-12.24,10.5-26.01,7.91-36.25-2.51-9.92-15.38-16.22-23.69-24.11-.31-1.56-.62-3.12-.93-4.67Z"/>
    <path class="cls-4" d="M342.29,364.16c-1.72-.87-2.2-.96-2.47-1.28-18.18-21.32-36.22-26.32-55.33,.15,2.45-9.35,4.27-19.02,7.54-27.96,2.94-8.05,1.31-12.5-4.73-16.83-6.43-4.61-12.26-10.35-19.48-16.56,9-3.88,17.23-2.04,25.17-1.91,6.5,.1,9.89-2.04,11.52-9.79,2-9.51,5.13-18.68,7.86-28.31,1.05,.96,1.97,1.37,2.05,1.94,3.71,29.42,15.86,45.15,44.9,33.67-.32,1.5-.64,3-.96,4.5-5.16,4.51-9.93,9.89-15.55,13.35-10.23,6.3-11.95,14.28-6.76,26.11,2.82,6.44,3.88,13.94,6.25,22.93Z"/>
    <path class="cls-4" d="M342.18,573.35c-20.32-28.14-38.69-25.74-56.51,.99-.58-3.32-1.11-4.42-.84-5.04,11.36-25.82,11.04-47.36-19.06-58.18,1.14-1.14,2.28-2.28,3.42-3.42,8.12,0,16.27-.49,24.36,.16,6.13,.49,9.13-2.05,10.75-8.95,2.32-9.87,5.4-19.5,8.88-31.81,2.7,9.6,5.5,16.42,6.45,23.58,1.98,14.81,9.08,19.14,20.91,17.18,5.57-.93,11.35-.16,19.03,1.47-28.09,13.05-31.76,34.32-17.38,64.02Z"/>
    <path class="cls-4" d="M967.03,781.26c-20.25-25.54-38.65-27.83-56.16,1.69-1.03-3.72-1.63-4.73-1.4-5.25,11.04-25.73,11.57-47.59-19.13-58.28,7.44-4.8,12.05-3.42,16.34-3.46,19.6-.2,19.58-.11,25.96-22.79,1.44-5.1,3.05-10.14,5.21-17.28,3.18,10.77,6.58,19.32,8.12,28.32,1.7,9.92,6,12.65,13.99,11.83,7.35-.76,14.81-.16,22.59-.16-.66,2.1-.72,3.35-1.18,3.61-23.69,13.28-29.51,32.87-14.34,61.78Z"/>
    <path class="cls-4" d="M267.99,713.5c29.2,12.24,39.93-5.02,43.84-33.27,.1-.72,.96-1.29,3.51-4.53,.11,35.34,15.35,47.65,44.76,40.87-27.89,14.39-32.95,35.16-19.34,63.69-7.01-5.93-14.3-11.46-20.94-17.91-4.75-4.61-8.34-4.6-13.08-.07-6.82,6.52-14.18,12.27-21.45,18.47-.26-1.07-.56-1.61-.46-2.01,2.06-7.99,3.65-16.21,6.39-23.86,3.39-9.46,3.13-16.25-5.56-21.65-6.09-3.78-11.26-9.62-16.83-14.54-.28-1.73-.56-3.46-.84-5.18Z"/>
    <path class="cls-4" d="M131.63,155.2c-17.8-20.95-35.75-28.46-53.26,3.23-1.06-5.01-1.67-6.2-1.38-6.82,11.93-26.17,9.01-46.43-16.98-55.96,1.33-5.29,3.76-4.16,5.62-4.26,9.2-.47,20.83,3.04,26.93-2.27,6.1-5.31,6.64-19.42,9.7-29.63,.53-1.75,1.48-3.33,3.19-7.1,1.87,6.68,3.22,11.44,4.53,16.21q6.27,22.73,26.12,22.74c4.2,0,8.4,0,14.22,0-5.71,9.06-13.04,13.49-19.54,18.78-5.76,4.68-6.92,9.14-4.66,17.29,2.47,8.94,8.13,17.45,5.28,27.88l.24-.1Z"/>
    <path class="cls-5" d="M494.67,155.12c-2.33-9.89,2.52-18.21,5.21-26.52,3.03-9.35,1.38-14.53-5.44-19.47-6.22-4.51-11.89-10.09-20.81-17.78,11.39,0,19.21-.61,26.92,.18,7.22,.73,10.66-2.28,12.35-10.52,1.86-9.07,4.85-17.81,7.58-27.54,5.85,7.82,6.74,17.38,8.79,26.05,2.15,9.08,5.63,13.06,13.95,12.02,7.36-.92,14.88-.19,22.48-.19-.29,1.88-.2,3.24-.57,3.44-23.46,12.97-29.73,32.44-13.51,59.78-3.3-.41-3.9-.27-4.11-.54-17.96-23.42-35.61-20.22-53.06,.81l.21,.28Z"/>
    <path class="cls-4" d="M756.29,155.2c-17.79-21.51-35.76-27.09-53.46,2.26-.85-4.04-1.46-5.23-1.18-5.85,11.93-26.17,9-46.43-16.98-55.96,1.33-5.29,3.76-4.16,5.62-4.25,9.2-.47,20.83,3.04,26.93-2.27,6.1-5.31,6.64-19.42,9.7-29.63,.53-1.75,1.48-3.33,3.19-7.1,1.87,6.68,3.22,11.44,4.53,16.21q6.27,22.73,26.12,22.74c4.2,0,8.4,0,14.22,0-5.72,9.06-13.04,13.49-19.54,18.78-5.76,4.68-6.92,9.14-4.66,17.29,2.47,8.94,8.13,17.45,5.28,27.88l.24-.09Z"/>
    <path class="cls-5" d="M1119.33,155.12c-2.33-9.89,2.52-18.21,5.21-26.52,3.03-9.35,1.38-14.53-5.44-19.47-6.22-4.51-11.89-10.09-20.81-17.78,11.39,0,19.21-.61,26.92,.18,7.22,.73,10.66-2.28,12.35-10.52,1.86-9.07,4.85-17.81,7.58-27.54,5.85,7.82,6.74,17.38,8.79,26.05,2.15,9.08,5.63,13.06,13.95,12.02,7.36-.92,14.88-.19,22.48-.19-.29,1.88-.2,3.24-.56,3.44-23.46,12.97-29.73,32.44-13.51,59.78-3.3-.41-3.9-.27-4.11-.54-17.96-23.42-35.61-20.22-53.06,.81l.21,.28Z"/>
    <path class="cls-5" d="M494.67,571.48c-2.33-9.89,2.52-18.21,5.21-26.52,3.03-9.35,1.38-14.53-5.44-19.47-6.22-4.51-11.89-10.09-20.81-17.78,11.39,0,19.21-.61,26.92,.18,7.22,.73,10.66-2.28,12.35-10.52,1.86-9.07,4.85-17.81,7.58-27.54,5.85,7.82,6.74,17.38,8.79,26.05,2.15,9.08,5.63,13.06,13.95,12.02,7.36-.92,14.88-.19,22.48-.19-.29,1.88-.19,3.24-.56,3.44-23.46,12.97-29.73,32.44-13.51,59.78-3.3-.41-3.9-.27-4.11-.54-17.96-23.42-35.61-20.22-53.06,.81l.21,.28Z"/>
    <path class="cls-4" d="M756.29,571.55c-17.8-20.95-35.75-28.46-53.26,3.23-1.05-5.01-1.67-6.2-1.38-6.82,11.93-26.17,9-46.43-16.98-55.96,1.33-5.29,3.76-4.16,5.62-4.25,9.2-.47,20.83,3.04,26.93-2.27,6.1-5.31,6.64-19.42,9.7-29.63,.53-1.75,1.48-3.33,3.19-7.1,1.87,6.68,3.22,11.44,4.53,16.21q6.27,22.73,26.12,22.74c4.2,0,8.4,0,14.22,0-5.72,9.06-13.04,13.49-19.54,18.78-5.76,4.68-6.92,9.14-4.66,17.29,2.47,8.94,8.13,17.45,5.28,27.88l.24-.09Z"/>
    <path class="cls-5" d="M494.67,987.83c-2.33-9.89,2.52-18.21,5.21-26.52,3.03-9.35,1.38-14.53-5.44-19.47-6.23-4.51-11.89-10.09-20.81-17.78,11.39,0,19.21-.61,26.92,.18,7.22,.73,10.66-2.28,12.35-10.52,1.86-9.07,4.85-17.81,7.58-27.53,5.85,7.82,6.74,17.38,8.79,26.05,2.15,9.08,5.63,13.06,13.95,12.02,7.36-.92,14.88-.19,22.48-.19-.29,1.88-.2,3.24-.57,3.44-23.46,12.97-29.72,32.44-13.51,59.78-3.3-.41-3.9-.27-4.11-.54-17.96-23.42-35.61-20.22-53.06,.81l.21,.28Z"/>
    <path class="cls-4" d="M131.63,779.73c-17.79-21.51-35.76-27.09-53.46,2.26-.85-4.04-1.46-5.23-1.18-5.85,11.93-26.17,9.01-46.43-16.98-55.96,1.33-5.29,3.76-4.16,5.62-4.26,9.2-.47,20.83,3.04,26.93-2.27,6.1-5.31,6.64-19.42,9.7-29.63,.53-1.75,1.48-3.33,3.19-7.1,1.87,6.68,3.22,11.44,4.53,16.21q6.27,22.73,26.12,22.74c4.2,0,8.4,0,14.22,0-5.72,9.06-13.04,13.49-19.54,18.78-5.76,4.68-6.92,9.14-4.66,17.29,2.47,8.94,8.13,17.45,5.28,27.88l.24-.09Z"/>
    <path class="cls-5" d="M494.67,779.65c-2.33-9.89,2.52-18.21,5.21-26.52,3.03-9.35,1.38-14.53-5.44-19.47-6.22-4.51-11.89-10.09-20.8-17.78,11.39,0,19.21-.61,26.92,.18,7.22,.73,10.66-2.28,12.35-10.52,1.86-9.07,4.85-17.81,7.58-27.54,5.85,7.82,6.74,17.38,8.79,26.05,2.15,9.08,5.63,13.06,13.95,12.02,7.36-.92,14.88-.19,22.48-.19-.29,1.88-.2,3.24-.57,3.44-23.46,12.97-29.72,32.44-13.51,59.78-3.3-.41-3.9-.27-4.11-.54-17.96-23.42-35.61-20.22-53.06,.81l.21,.28Z"/>
    <path class="cls-4" d="M756.29,779.73c-17.8-20.95-35.75-28.46-53.26,3.23-1.06-5.01-1.67-6.2-1.38-6.82,11.93-26.17,9.01-46.43-16.98-55.96,1.33-5.29,3.76-4.16,5.62-4.26,9.2-.47,20.83,3.04,26.93-2.27,6.1-5.31,6.64-19.42,9.7-29.63,.53-1.75,1.48-3.33,3.19-7.1,1.87,6.68,3.22,11.44,4.53,16.21q6.27,22.73,26.12,22.74c4.2,0,8.4,0,14.22,0-5.71,9.06-13.03,13.49-19.54,18.77-5.76,4.68-6.92,9.14-4.66,17.29,2.47,8.94,8.13,17.45,5.28,27.88l.24-.1Z"/>
    <path class="cls-5" d="M1119.33,779.65c-2.33-9.89,2.52-18.21,5.21-26.52,3.03-9.35,1.38-14.53-5.44-19.47-6.22-4.51-11.89-10.09-20.81-17.78,11.39,0,19.21-.61,26.92,.18,7.22,.73,10.66-2.28,12.35-10.52,1.86-9.07,4.85-17.81,7.58-27.54,5.85,7.82,6.74,17.38,8.79,26.05,2.15,9.08,5.63,13.06,13.95,12.02,7.37-.92,14.89-.19,22.48-.19-.29,1.88-.16,3.01-.57,3.47-7.73,8.66-21.78,12.32-23.49,24.41-1.52,10.7,5.14,23.01,8.32,35.13-1.63-.2-2.23-.06-2.44-.34-17.96-23.42-35.61-20.22-53.06,.81l.21,.28Z"/>
    <path class="cls-4" d="M131.63,987.9c-17.79-21.51-35.76-27.09-53.46,2.26-.85-4.04-1.46-5.23-1.18-5.85,11.93-26.17,9.01-46.43-16.98-55.96,1.33-5.29,3.76-4.16,5.62-4.25,9.2-.47,20.83,3.04,26.93-2.27,6.1-5.31,6.64-19.42,9.7-29.63,.52-1.75,1.47-3.32,3.19-7.1,1.87,6.68,3.22,11.44,4.53,16.21q6.27,22.73,26.12,22.74c4.2,0,8.4,0,14.22,0-5.72,9.05-13.04,13.49-19.54,18.78-5.76,4.68-6.92,9.14-4.66,17.29,2.47,8.94,8.13,17.45,5.28,27.88l.24-.09Z"/>
    <path class="cls-4" d="M756.29,987.9c-17.79-21.5-35.76-27.09-53.46,2.26-.85-4.04-1.46-5.23-1.18-5.85,11.93-26.17,9.01-46.43-16.98-55.96,1.33-5.29,3.76-4.16,5.62-4.26,9.2-.47,20.83,3.04,26.93-2.27,6.1-5.31,6.64-19.42,9.7-29.63,.53-1.75,1.48-3.33,3.19-7.1,1.87,6.68,3.22,11.44,4.53,16.21q6.27,22.73,26.12,22.74c4.2,0,8.4,0,14.22,0-5.71,9.06-13.03,13.49-19.54,18.77-5.76,4.68-6.92,9.14-4.66,17.29,2.48,8.94,8.13,17.45,5.28,27.88l.24-.1Z"/>
    <path class="cls-5" d="M1119.33,987.83c-2.33-9.89,2.52-18.21,5.21-26.52,3.03-9.35,1.38-14.53-5.44-19.47-6.22-4.51-11.89-10.09-20.81-17.78,11.39,0,19.21-.61,26.92,.18,7.22,.73,10.66-2.28,12.35-10.52,1.86-9.07,4.85-17.81,7.58-27.54,5.85,7.82,6.74,17.38,8.79,26.05,2.15,9.08,5.63,13.06,13.95,12.02,7.36-.92,14.88-.19,22.48-.19-.29,1.88-.16,3.01-.57,3.47-7.73,8.66-21.78,12.32-23.49,24.41-1.52,10.7,5.14,23.01,8.32,35.13-1.63-.2-2.23-.06-2.44-.34-17.96-23.42-35.61-20.22-53.06,.81l.21,.28Z"/>
    <path class="cls-4" d="M131.63,363.37c-17.79-21.5-35.76-27.09-53.46,2.26-.85-4.04-1.46-5.23-1.18-5.85,11.93-26.17,9.01-46.43-16.98-55.96,1.33-5.29,3.76-4.16,5.62-4.26,9.2-.47,20.83,3.04,26.93-2.27,6.1-5.31,6.64-19.42,9.7-29.63,.53-1.75,1.48-3.33,3.19-7.1,1.87,6.68,3.22,11.44,4.53,16.21q6.27,22.73,26.12,22.74c4.2,0,8.4,0,14.22,0-5.71,9.06-13.04,13.49-19.54,18.78-5.76,4.68-6.92,9.14-4.66,17.29,2.47,8.94,8.13,17.45,5.28,27.88l.24-.1Z"/>
    <path class="cls-5" d="M494.67,363.3c-2.33-9.89,2.52-18.21,5.21-26.52,3.03-9.35,1.38-14.53-5.44-19.47-6.22-4.51-11.89-10.09-20.81-17.78,11.39,0,19.21-.61,26.92,.18,7.22,.73,10.66-2.28,12.35-10.52,1.86-9.07,4.85-17.81,7.58-27.54,5.85,7.82,6.74,17.38,8.79,26.05,2.15,9.08,5.63,13.06,13.95,12.02,7.36-.92,14.88-.19,22.48-.19-.29,1.88-.2,3.24-.57,3.44-23.46,12.97-29.73,32.44-13.51,59.78-3.3-.41-3.9-.27-4.11-.54-17.96-23.42-35.61-20.22-53.06,.81l.21,.28Z"/>
    <path class="cls-4" d="M756.29,363.37c-17.79-21.5-35.76-27.09-53.46,2.26-.85-4.04-1.35-5.04-1.19-5.88,2.22-11.89,11.22-24.47,7.26-34.67-3.84-9.88-15.54-15.53-23.78-23.03,.89-3.53,3.32-2.4,5.18-2.49,9.2-.47,20.83,3.04,26.93-2.27,6.1-5.31,6.64-19.42,9.7-29.63,.52-1.75,1.47-3.32,3.19-7.1,1.87,6.68,3.22,11.44,4.53,16.21q6.27,22.73,26.12,22.74c4.2,0,8.4,0,14.22,0-5.71,9.06-13.04,13.49-19.54,18.78-5.76,4.68-6.92,9.14-4.66,17.29,2.47,8.94,8.13,17.45,5.28,27.88l.24-.1Z"/>
    <path class="cls-5" d="M1119.33,363.3c-2.33-9.89,2.52-18.21,5.21-26.52,3.03-9.35,1.38-14.53-5.44-19.47-6.22-4.51-11.89-10.09-20.81-17.78,11.39,0,19.21-.61,26.92,.18,7.22,.73,10.66-2.28,12.35-10.52,1.86-9.07,4.85-17.81,7.58-27.54,5.85,7.82,6.74,17.38,8.79,26.05,2.15,9.08,5.63,13.06,13.95,12.02,7.36-.92,14.88-.19,22.48-.19-.29,1.88-.2,3.24-.56,3.44-23.46,12.97-29.73,32.44-13.51,59.78-3.3-.41-3.9-.27-4.11-.54-17.96-23.42-35.61-20.22-53.06,.81l.21,.28Z"/>
    <path class="cls-5" d="M1119.33,571.48c-2.33-9.89,2.52-18.21,5.22-26.52,3.03-9.35,1.38-14.53-5.44-19.47-6.22-4.51-11.89-10.09-20.81-17.78,11.39,0,19.21-.61,26.92,.18,7.22,.73,10.66-2.28,12.35-10.52,1.86-9.07,4.85-17.81,7.58-27.54,5.85,7.82,6.74,17.38,8.79,26.05,2.15,9.08,5.63,13.06,13.95,12.02,7.36-.92,14.88-.19,22.48-.19-.29,1.88-.16,3.01-.57,3.47-7.73,8.66-21.78,12.32-23.49,24.41-1.52,10.7,5.14,23.01,8.32,35.13-1.63-.2-2.23-.06-2.44-.34-17.96-23.43-35.61-20.22-53.06,.81l.21,.28Z"/>
    <path class="cls-4" d="M131.63,571.55c-17.79-21.5-35.76-27.09-53.46,2.26-.85-4.04-1.46-5.23-1.18-5.85,11.93-26.17,9.01-46.43-16.98-55.96,1.33-5.29,3.76-4.16,5.62-4.26,9.2-.47,20.83,3.04,26.93-2.27,6.1-5.31,6.64-19.42,9.7-29.63,.53-1.75,1.48-3.33,3.19-7.1,1.87,6.68,3.22,11.44,4.53,16.21q6.27,22.73,26.12,22.74c4.2,0,8.4,0,14.22,0-5.71,9.06-13.04,13.49-19.54,18.78-5.76,4.68-6.92,9.14-4.66,17.29,2.47,8.94,8.13,17.45,5.28,27.88l.24-.1Z"/>
    <path class="cls-5" d="M235.28,260.07c-2.17-2.27-4.22-4.74-6.55-6.77q-18.38-15.99-37.34-1.52c-3.19,2.43-6.16,5.39-10.26,2.55q10.02-31.97-13.33-53.15c-1.19-1.08-2.33-2.23-6-5.74,10.34,0,17.75-.64,25.04,.17,7.99,.89,12.11-1.95,14.14-11.65,1.86-8.9,3.51-18.27,9.98-29.28,.88,35.58,15.64,48.52,43.88,40.32-20.91,15.59-32.23,32.57-18.35,59.98,.55,1.09-.77,3.49-1.22,5.28v-.19Z"/>
    <path class="cls-5" d="M859.94,260.07c-2.17-2.27-4.22-4.75-6.55-6.77q-18.38-15.99-37.35-1.55-3.01,2.29-10.23,2.53,10.01-31.92-13.35-53.1c-1.19-1.08-2.33-2.23-6-5.74,10.34,0,17.75-.64,25.04,.17,7.99,.89,12.11-1.95,14.14-11.65,1.86-8.9,3.51-18.27,9.98-29.28,.88,35.58,15.64,48.52,43.88,40.32-20.91,15.59-32.23,32.57-18.35,59.98,.55,1.09-.77,3.49-1.22,5.28v-.19Z"/>
    <path class="cls-5" d="M859.94,676.43c-2.17-2.27-4.22-4.75-6.55-6.77q-18.38-15.99-37.34-1.52c-3.19,2.43-6.16,5.39-10.26,2.55q10.02-31.97-13.33-53.15c-1.2-1.09-2.35-2.24-6-5.74,10.34,0,17.75-.64,25.04,.17,7.99,.89,12.11-1.95,14.14-11.65,1.86-8.9,3.51-18.27,8.34-26.49,5.49,12.14,4.07,29.89,12.8,36.05,7.87,5.56,20.82,1.17,34.73,1.17-22.93,15.9-34.25,32.88-20.36,60.29,.55,1.09-.77,3.49-1.22,5.28v-.19Z"/>
    <path class="cls-5" d="M235.28,884.6c-2.17-2.27-4.22-4.74-6.55-6.77q-18.38-15.99-37.34-1.52c-3.19,2.43-6.16,5.39-10.26,2.55q10.02-31.97-13.33-53.15c-1.19-1.08-2.33-2.23-6-5.74,10.34,0,17.75-.64,25.04,.17,7.99,.89,12.11-1.95,14.14-11.65,1.86-8.9,3.51-18.27,9.98-29.28,.88,35.58,15.64,48.52,43.88,40.32-20.91,15.59-32.23,32.57-18.35,59.98,.55,1.09-.77,3.49-1.22,5.28,0,0,0-.19,0-.19Z"/>
    <path class="cls-5" d="M235.28,468.25c-2.17-2.27-4.22-4.75-6.55-6.77q-18.38-15.99-37.34-1.52c-3.19,2.43-6.16,5.39-10.26,2.55q10.02-31.97-13.33-53.15c-1.2-1.09-2.35-2.24-6-5.74,10.34,0,17.75-.64,25.04,.17,7.99,.89,12.11-1.95,14.14-11.65,1.86-8.9,3.51-18.27,9.98-29.28,.88,35.58,15.64,48.52,43.88,40.32-20.91,15.59-32.23,32.57-18.35,59.98,.55,1.09-.77,3.49-1.22,5.28,0,0,0-.19,0-.19Z"/>
    <path class="cls-5" d="M859.94,884.6c-2.17-2.27-4.22-4.74-6.55-6.77q-18.38-15.99-37.34-1.52c-3.19,2.43-6.16,5.39-10.26,2.55q10.02-31.97-13.33-53.15c-1.19-1.08-2.33-2.23-6-5.74,10.34,0,17.75-.64,25.04,.17,7.99,.89,12.3-1.87,14.09-11.67,1.64-9.01,4.94-17.6,9-27.56,1.92,33.89,16.68,46.83,44.92,38.63-20.91,15.59-32.23,32.57-18.35,59.98,.55,1.09-.77,3.49-1.22,5.28v-.19Z"/>
    <path class="cls-5" d="M235.28,676.43c-2.17-2.27-4.22-4.75-6.55-6.77q-18.38-15.99-37.34-1.52c-3.19,2.43-6.16,5.39-10.26,2.55q10.02-31.97-13.33-53.15c-1.2-1.09-2.35-2.24-6-5.74,10.34,0,17.75-.64,25.04,.17,7.99,.89,12.11-1.95,14.14-11.65,1.86-8.9,3.51-18.27,9.98-29.28,.88,35.58,15.64,48.52,43.88,40.32-20.91,15.59-32.23,32.57-18.35,59.98,.55,1.09-.77,3.49-1.22,5.28,0,0,0-.19,0-.19Z"/>
    <path class="cls-5" d="M859.94,468.25c-2.17-2.27-4.22-4.75-6.55-6.77q-18.38-15.99-37.34-1.52c-3.19,2.43-6.16,5.39-10.26,2.55q10.02-31.97-13.33-53.15c-1.2-1.09-2.35-2.24-6-5.74,10.34,0,17.75-.64,25.04,.17,7.99,.89,12.11-1.95,14.14-11.65,1.86-8.9,3.51-18.27,8.34-26.49,5.49,12.14,4.07,29.89,12.8,36.05,7.87,5.56,20.82,1.17,34.73,1.17-22.93,15.9-34.25,32.88-20.36,60.29,.55,1.09-.77,3.49-1.22,5.28v-.19Z"/>
    <path class="cls-5" d="M1015.59,260.06c-3.42-10.47,2.55-18.95,5.02-27.83,2.38-8.56,1.71-13.62-4.87-18.38-6.38-4.61-12.18-10.33-21.53-18.41,11.5,0,19.59-.45,27.63,.14,6.62,.49,9.83-2.13,11.41-9.96,1.92-9.49,5.17-18.61,8.05-28.64,5.22,8.5,6.82,17.92,8.64,26.8,2,9.73,6.06,12.62,14.04,11.81,7.36-.75,14.83-.16,22.65-.16-.95,5.23-4.07,6.19-6.18,8.15-6.26,5.79-15.1,9.9-18.34,17.41-3.06,7.1,3.34,16.46,5.33,24.9,.65,2.76,2.13,6.04-.02,8.39-2.42,2.65-5.01,.25-6.5-1.8-14.54-19.89-27.64-11.98-40.52,2.57-1.5,1.7-3.22,3.14-4.84,4.7l.02,.3Z"/>
    <path class="cls-5" d="M1015.59,884.59c-3.42-10.47,2.55-18.95,5.02-27.83,2.38-8.55,1.71-13.62-4.87-18.38-6.38-4.61-12.18-10.33-21.53-18.41,11.5,0,19.59-.45,27.63,.14,6.62,.49,9.83-2.13,11.41-9.96,1.92-9.49,5.17-18.61,8.05-28.64,5.22,8.5,6.82,17.92,8.64,26.8,2,9.73,6.06,12.62,14.04,11.81,7.36-.75,14.82-.16,22.65-.16-.95,5.23-4.07,6.19-6.18,8.15-6.26,5.79-15.1,9.9-18.34,17.41-3.06,7.1,3.34,16.46,5.33,24.9,.65,2.76,2.13,6.04-.02,8.39-2.42,2.65-5.01,.25-6.5-1.8-14.54-19.89-27.64-11.98-40.52,2.57-1.5,1.7-3.22,3.14-4.83,4.7,0,0,.02,.3,.02,.3Z"/>
    <path class="cls-5" d="M1015.59,468.23c-3.42-10.47,2.55-18.95,5.02-27.83,2.38-8.55,1.71-13.62-4.87-18.38-6.38-4.61-12.18-10.33-21.53-18.41,11.5,0,19.59-.45,27.63,.14,6.62,.49,9.83-2.13,11.41-9.96,1.92-9.49,5.17-18.61,8.05-28.64,5.22,8.5,6.82,17.92,8.64,26.8,2,9.73,6.06,12.62,14.04,11.81,7.36-.75,14.83-.16,22.65-.16-.95,5.23-4.07,6.19-6.18,8.15-6.26,5.79-15.1,9.9-18.34,17.41-3.06,7.1,3.34,16.46,5.33,24.9,.65,2.76,2.13,6.04-.02,8.39-2.42,2.65-5.01,.25-6.5-1.8-14.54-19.89-27.64-11.98-40.52,2.57-1.5,1.7-3.22,3.14-4.83,4.7l.02,.3Z"/>
    <path class="cls-5" d="M390.93,260.06c-3.42-10.47,2.55-18.95,5.02-27.83,2.38-8.56,1.71-13.62-4.87-18.38-6.38-4.61-12.18-10.33-21.53-18.41,11.5,0,19.59-.45,27.63,.14,6.62,.49,9.83-2.13,11.41-9.96,1.92-9.49,5.17-18.61,8.05-28.64,5.22,8.5,6.82,17.92,8.64,26.8,2,9.73,6.06,12.62,14.04,11.81,7.36-.75,14.82-.16,22.65-.16-.95,5.23-4.07,6.19-6.18,8.15-6.26,5.79-15.1,9.9-18.34,17.41-3.06,7.1,3.34,16.46,5.33,24.9,.65,2.76,2.13,6.04-.02,8.39-2.42,2.65-5.01,.25-6.5-1.8-14.54-19.89-27.64-11.98-40.52,2.57-1.5,1.7-3.22,3.14-4.83,4.7l.02,.3Z"/>
    <path class="cls-5" d="M1015.59,676.41c-3.42-10.47,2.55-18.95,5.02-27.83,2.38-8.55,1.71-13.62-4.87-18.38-6.38-4.61-12.18-10.33-21.53-18.41,11.5,0,19.59-.45,27.63,.14,6.62,.49,9.83-2.13,11.41-9.96,1.92-9.49,5.17-18.61,8.05-28.64,5.22,8.5,6.82,17.92,8.64,26.8,2,9.73,6.06,12.62,14.04,11.81,7.36-.75,14.83-.16,22.65-.16-.95,5.23-4.07,6.19-6.18,8.15-6.26,5.79-15.1,9.9-18.34,17.41-3.06,7.1,3.34,16.46,5.33,24.9,.65,2.76,2.13,6.04-.02,8.39-2.42,2.65-5.01,.25-6.5-1.8-14.54-19.89-27.64-11.98-40.52,2.57-1.5,1.7-3.22,3.14-4.83,4.7l.02,.3Z"/>
    <path class="cls-5" d="M390.93,468.23c-3.42-10.47,2.55-18.95,5.02-27.83,2.38-8.55,1.71-13.62-4.87-18.38-6.38-4.61-12.18-10.33-21.53-18.41,11.5,0,19.59-.45,27.63,.14,6.62,.49,9.83-2.13,11.41-9.96,1.92-9.49,5.17-18.61,8.05-28.64,5.22,8.5,6.82,17.92,8.64,26.8,2,9.73,6.06,12.62,14.04,11.81,7.36-.75,14.83-.16,22.65-.16-.95,5.23-4.07,6.19-6.18,8.15-6.26,5.79-15.1,9.9-18.34,17.41-3.06,7.1,3.34,16.46,5.33,24.9,.65,2.76,2.13,6.04-.02,8.39-2.42,2.65-5.01,.25-6.5-1.8-14.54-19.89-27.64-11.98-40.52,2.57-1.5,1.7-3.22,3.14-4.83,4.7l.02,.3Z"/>
    <path class="cls-5" d="M390.93,884.59c-3.42-10.47,2.55-18.95,5.02-27.83,2.38-8.56,1.71-13.62-4.87-18.38-6.38-4.61-12.18-10.33-21.53-18.41,11.5,0,19.59-.45,27.63,.14,6.62,.49,9.83-2.13,11.41-9.96,1.92-9.49,5.17-18.61,8.05-28.64,5.22,8.5,6.82,17.92,8.64,26.8,2,9.73,6.06,12.62,14.04,11.81,7.36-.75,14.82-.16,22.65-.16-.95,5.23-4.07,6.19-6.18,8.15-6.26,5.79-15.1,9.9-18.34,17.41-3.06,7.1,3.34,16.46,5.33,24.9,.65,2.76,2.13,6.04-.02,8.39-2.42,2.65-5.01,.25-6.5-1.8-14.54-19.89-27.64-11.98-40.52,2.57-1.5,1.7-3.22,3.14-4.84,4.7l.02,.3Z"/>
    <path class="cls-5" d="M390.93,676.41c-3.42-10.47,2.55-18.95,5.02-27.83,2.38-8.55,1.71-13.62-4.87-18.38-6.38-4.61-12.18-10.33-21.53-18.41,11.5,0,19.59-.45,27.63,.14,6.62,.49,9.83-2.13,11.41-9.96,1.92-9.49,5.17-18.61,8.05-28.64,5.22,8.5,6.82,17.92,8.64,26.8,2,9.73,6.06,12.62,14.04,11.81,7.36-.75,14.83-.16,22.65-.16-.95,5.23-4.07,6.19-6.18,8.15-6.26,5.79-15.1,9.9-18.34,17.41-3.06,7.1,3.34,16.46,5.33,24.9,.65,2.76,2.13,6.04-.02,8.39-2.42,2.65-5.01,.25-6.5-1.8-14.54-19.89-27.64-11.98-40.52,2.57-1.5,1.7-3.22,3.14-4.83,4.7l.02,.3Z"/>
    <path class="cls-5" d="M390.91,676.11c-.72-.3-1.43-.6-2.15-.9,1.49-1.72,1.93-.59,2.17,1.15,0,.05-.02-.25-.02-.25Z"/>
    <path class="cls-5" d="M859.95,676.62c.44-.76,.88-1.52,1.32-2.28,1.42,2.34-1.14,1.08-1.31,2.04-.01,.05,0,.24,0,.24Z"/>
    <path class="cls-5" d="M1015.57,676.11c-.72-.3-1.43-.6-2.15-.9,1.49-1.72,1.93-.59,2.17,1.15,0,.05-.02-.25-.02-.25Z"/>
    <path class="cls-4" d="M131.39,571.65c.32-.2,.63-.39,.95-.59-.22,.14-.43,.27-.68,.45-.03,.05-.27,.14-.27,.14Z"/>
    <path class="cls-5" d="M390.91,467.94c-.72-.3-1.43-.6-2.15-.9,1.49-1.72,1.93-.59,2.17,1.15,0,.05-.02-.25-.02-.25Z"/>
    <path class="cls-5" d="M494.46,571.19c-.37,.12-.73,.24-1.1,.36,.42-.05,.85-.09,1.29-.1,.02,.03-.19-.25-.19-.25Z"/>
    <path class="cls-5" d="M235.28,468.44c.44-.76,.88-1.52,1.32-2.28,1.42,2.34-1.14,1.08-1.31,2.04-.01,.05,0,.24,0,.24Z"/>
    <path class="cls-5" d="M1119.12,571.19c-.37,.12-.73,.24-1.1,.36,.42-.05,.85-.09,1.29-.1,.02,.03-.19-.25-.19-.25Z"/>
    <path class="cls-4" d="M131.39,779.82c.32-.2,.63-.39,.95-.59-.22,.14-.43,.27-.68,.45-.03,.05-.27,.14-.27,.14Z"/>
    <path class="cls-5" d="M494.46,779.37c-.37,.12-.73,.24-1.1,.36,.42-.05,.85-.09,1.29-.1,.02,.03-.19-.25-.19-.25Z"/>
    <path class="cls-4" d="M756.05,571.65c.32-.2,.63-.39,.95-.59-.22,.14-.43,.27-.68,.45-.03,.05-.27,.14-.27,.14Z"/>
    <path class="cls-5" d="M494.46,154.84c-.37,.12-.73,.24-1.1,.36,.42-.05,.85-.09,1.29-.1,.02,.03-.19-.25-.19-.25Z"/>
    <path class="cls-4" d="M756.05,155.29c.32-.2,.63-.39,.95-.59-.22,.14-.43,.27-.68,.45-.03,.05-.27,.14-.27,.14Z"/>
    <path class="cls-4" d="M131.39,155.29c.32-.2,.63-.39,.95-.59-.22,.14-.43,.27-.68,.45-.03,.05-.27,.14-.27,.14Z"/>
    <path class="cls-5" d="M235.28,260.27c.44-.76,.88-1.52,1.32-2.28,1.42,2.34-1.14,1.08-1.31,2.04-.01,.05,0,.24,0,.24Z"/>
    <path class="cls-5" d="M390.91,259.76c-.72-.3-1.43-.6-2.15-.9,1.49-1.72,1.93-.59,2.17,1.15,0,.05-.02-.25-.02-.25Z"/>
    <path class="cls-4" d="M756.05,779.82c.32-.2,.63-.39,.95-.59-.22,.14-.43,.27-.68,.45-.03,.05-.27,.14-.27,.14Z"/>
    <path class="cls-5" d="M235.28,884.8c.44-.76,.88-1.52,1.32-2.28,1.42,2.34-1.14,1.08-1.31,2.04-.01,.05,0,.24,0,.24Z"/>
    <path class="cls-5" d="M390.91,884.29c-.72-.3-1.43-.6-2.15-.9,1.49-1.72,1.93-.59,2.17,1.15,0,.05-.02-.25-.02-.25Z"/>
    <path class="cls-5" d="M859.95,884.8c.44-.76,.88-1.52,1.32-2.28,1.42,2.34-1.14,1.08-1.31,2.04-.01,.05,0,.24,0,.24Z"/>
    <path class="cls-5" d="M1015.57,884.29c-.72-.3-1.43-.6-2.15-.9,1.49-1.72,1.93-.59,2.17,1.15,0,.05-.02-.25-.02-.25Z"/>
    <path class="cls-5" d="M859.95,260.27c.44-.76,.88-1.52,1.32-2.28,1.42,2.34-1.14,1.08-1.31,2.04-.01,.05,0,.24,0,.24Z"/>
    <path class="cls-5" d="M1119.12,363.02c-.37,.12-.73,.24-1.1,.36,.42-.05,.85-.09,1.29-.1,.02,.03-.19-.25-.19-.25Z"/>
    <path class="cls-5" d="M859.95,468.44c.44-.76,.88-1.52,1.32-2.28,1.42,2.34-1.14,1.08-1.31,2.04-.01,.05,0,.24,0,.24Z"/>
    <path class="cls-5" d="M235.28,676.62c.44-.76,.88-1.52,1.32-2.28,1.42,2.34-1.14,1.08-1.31,2.04-.01,.05,0,.24,0,.24Z"/>
    <path class="cls-4" d="M756.05,363.47c.32-.2,.63-.39,.95-.59-.22,.14-.43,.27-.68,.45-.03,.05-.27,.14-.27,.14Z"/>
    <path class="cls-5" d="M1015.57,467.94c-.72-.3-1.43-.6-2.15-.9,1.49-1.72,1.93-.59,2.17,1.15,0,.05-.02-.25-.02-.25Z"/>
    <path class="cls-5" d="M494.46,363.02c-.37,.12-.73,.24-1.1,.36,.42-.05,.85-.09,1.29-.1,.02,.03-.19-.25-.19-.25Z"/>
    <path class="cls-4" d="M131.39,363.47c.32-.2,.63-.39,.95-.59-.22,.14-.43,.27-.68,.45-.03,.05-.27,.14-.27,.14Z"/>
    <path class="cls-4" d="M131.39,988c.32-.2,.63-.39,.95-.59-.22,.14-.43,.27-.68,.45-.03,.05-.27,.14-.27,.14Z"/>
    <path class="cls-5" d="M494.46,987.55c-.37,.12-.73,.24-1.1,.36,.42-.05,.85-.09,1.29-.1,.02,.03-.19-.25-.19-.25Z"/>
    <path class="cls-4" d="M756.05,988c.32-.2,.63-.39,.95-.59-.22,.14-.43,.27-.68,.45-.03,.05-.27,.14-.27,.14Z"/>
    <path class="cls-5" d="M1119.12,987.55c-.37,.12-.73,.24-1.1,.36,.42-.05,.85-.09,1.29-.1,.02,.03-.19-.25-.19-.25Z"/>
    <path class="cls-5" d="M1119.12,154.84c-.37,.12-.73,.24-1.1,.36,.42-.05,.85-.09,1.29-.1,.02,.03-.19-.25-.19-.25Z"/>
    <path class="cls-5" d="M1015.57,259.76l-2.15-.9c1.49-1.72,1.93-.59,2.17,1.15,0,.05-.02-.25-.02-.25Z"/>
    <path class="cls-5" d="M1119.12,779.37c-.37,.12-.73,.24-1.1,.36,.42-.05,.85-.09,1.29-.1,.02,.03-.19-.25-.19-.25Z"/>
  </g>
</svg>