<?xml version="1.0" encoding="UTF-8"?>
<svg id="Layer_1" data-name="Layer 1" xmlns="http://www.w3.org/2000/svg" viewBox="0 0 2123.95 1752.55">
  <defs>
    <style>
      .cls-1 {
        fill: #f0f0f0;
      }

      .cls-2 {
        fill: #dee7f6;
      }

      .cls-3 {
        fill: #c7d4ec;
      }

      .cls-4 {
        fill: #e0e9f8;
      }

      .cls-5 {
        fill: #fab855;
      }

      .cls-6 {
        fill: #9aa8d4;
      }

      .cls-7 {
        fill: #4e4f50;
      }

      .cls-8 {
        fill: #d1def1;
      }

      .cls-9 {
        fill: #fafbfb;
      }

      .cls-10 {
        fill: #b3c1e5;
      }

      .cls-11 {
        fill: #7385c1;
      }

      .cls-12 {
        fill: #5a70c1;
      }

      .cls-13 {
        fill: #3e3e3f;
      }

      .cls-14 {
        fill: #5b5b5b;
      }

      .cls-15 {
        fill: #fefefe;
      }
    </style>
  </defs>
  <path class="cls-15" d="M1900.55,683.21c3.86,.59,8.58-.06,11.45,1.94,53.39,37.37,106.09,75.24,141.27,132.45,10.83,17.62,24.59,34.15,32.04,53.12,7.54,19.2,16.56,37.92,21.89,58.43,5.37,20.67,9.46,41.58,14.69,62.23,1.24,4.89,2.01,9.61,2.02,14.56,0,18.83,.11,37.67-.02,56.5-.36,53.36-11.67,104.29-27.45,155.37-10.9,35.31-29.35,66.55-43.09,100.11-9.77,23.86-29.75,43.49-44.81,65.26-36.62,52.96-83.87,95.41-134.64,133.93-29.61,22.47-60.88,42.93-92.53,62.49-20.2,12.49-42.36,21.86-63.86,32.19-3.91,1.88-6.97,3.48-7.55,8-4.46-.07-8.92-.21-13.37-.21-176.03-.04-352.06-.07-528.08-.1,.21-.81,.12-1.58-.28-2.32-.1-.9-.24-1.79-.4-2.68,3.37-6.62,5.89-13.29,5.79-21.05-.35-27.56-.24-55.12-.31-82.68,14.97-1.56,30.32,2.75,45.03-2.93,21.61,3.48,43.2,4.12,64.95,.77,13.35-2.06,17.55-10.25,18.96-22.51,4.27-37.05-2.12-73.99-.33-111.01,2.03-42.11-1.18-84.03-9.13-125.35-8.98-46.64-31.63-86.92-61.8-123.19,8.54-14.55,12.19-30.4,12.47-47.13,5.29-2.11,6.4-5.11,1.97-9.28,.04-14.88,.07-29.76,.11-44.64,27.34-7.56,29.61-10.48,29.62-38.65,.02-46.11,0-92.22,0-138.32,0-20.5-7.54-31.55-26.83-36.41-7.5-1.89-15.77-.72-23.69-.94,.16-41.15,.33-82.3,.49-123.45,12.17,2.69,24.5,1.11,36.74,1.24,27.23,.28,27.23,.09,28.87-26.5,6.2,.4,9.16,5.48,12.96,9.19,28.25,27.58,54.38,57.53,86.88,80.41,21.27,14.97,42.94,31.64,70.16,31.95,78.18,.9,156.37,.19,234.56,.11,21.7,0,43.4,.01,65.11,.02,33.65,.09,67.3,.28,100.95,.24,22.88-.03,38.79-15.83,39.06-38.86,.25-20.77,.1-41.55,.13-62.32Z"/>
  <path class="cls-15" d="M423.61,1619.19c-2.55-10.78-11.64-16.19-20.08-19.91-31.1-13.72-56.92-35.11-84.17-54.57-44.66-31.88-82.43-70.84-116.15-113.59-22.18-28.12-44.17-56.5-62.96-87.27-19.94-32.65-38.81-65.53-54.39-100.68-11.39-25.71-22.04-51.69-33.3-77.43-10.11-23.13-13.94-47.95-22.44-71.35-7.24-19.91-9.85-40.86-15.62-61.11-6.42-22.51-7.57-46.54-10.78-69.94-4.19-30.5-4.52-61.31-2.59-91.83,2.1-33.24,5.8-66.49,9.5-99.62,4.28-38.31,17.71-73.3,27.06-109.64,5.91-22.99,17.62-44.72,28.38-66.19,13.17-26.27,27.79-51.84,42.29-77.42,16.6-29.28,38.76-54.61,59.35-80.98,31.76-40.7,68.48-77.08,106.66-111.47,16.08-14.49,33.64-28.32,51.65-41.11,15.03-10.67,30.5-20.74,45.05-32.25,15.54-12.29,33.43-21.84,50.96-31.37,26.09-14.19,52.79-27.25,79.36-40.56,43.1-21.58,88.98-34.42,134.27-49.77,51.33-17.39,104.3-25.23,157.16-33.22,30.56-4.62,62.38-.98,93.64-.97,27.7,0,55.69-2.21,82.92,3.3,43.67,8.83,87.93,15,130.19,30.52,34.22,12.57,68.48,24.76,101.24,40.9,29.19,14.38,57.65,29.5,80.11,54.04,6.86,7.49,16.15,12.8,24.48,18.9,33.6,24.61,54,61.52,83.77,89.68,4.55,4.3,8.12,10.47,15.92,9.31,.52,4.42,.56,8.95,1.65,13.22,2.25,8.77-1.16,11.14-9.66,11.07-53.49-.46-106.98-.54-160.46-.74,4.06-17.03-10.91-24.24-18.27-35.38,.16-40.13-19.85-65.4-52.64-65.39-162.55,0-325.1-.06-487.65,.71-25.54,.12-51.33,2.88-75.97,10.99-15.33,5.05-29.93,11.36-33.46,29.84-6.75,2.88-6.33,7.19-2.45,12.2-.01,3.97-.03,7.93-.04,11.9-1.23,10.77-11.54,15-16.54,22.97-8.61,13.72-7.03,29.35-7.01,44.59-5.41,.08-10.82,.23-16.22,.23q-44.69,0-39.79,45.18c-13.32,.05-26.64,.06-39.96,.17-17.81,.15-22.71,5.16-23.11,22.71-.38,16.66,3.88,34.25-9.04,48.6-14.34,10.41-25.74,24.06-38.82,35.86-21.45,19.36-40.32,41.67-57.19,65.22-21.68,30.27-38.45,62.06-38.36,101.56,.14,64.2,3.54,128.49-2.13,192.67-.62,7.02-2.64,14.86,2.5,21.49,.06,19.83,.11,39.66,.17,59.5-2.63,2.08-3.25,5.05-2.75,8.01,5.61,33.36,1.49,66.97,2.56,100.45,.73,22.7,12.69,36.69,35.35,37.07,41.99,.72,84.01,.23,126.01,.2,9.72,0,14.49-5.04,14.44-14.74-.03-4.94,.04-9.88,.07-14.82,5.71-3.88,5.39-7.38-.69-10.49-.1-8.03-.2-16.05-.3-24.08,5.1-3.84,5.8-7.63-.1-11.38,.26-7.76,.53-15.53,.8-23.29,6.22-4.57,5.2-8.6-.91-12.25,2.95-25.24,.56-27.14-23.52-32.24-23.3-4.93-46.63-5.59-70.16-5.45,0-19.81,.02-39.63,.03-59.44,14.31-.03,28.62,.05,42.93-.14,12.13-.15,20.76-4.49,22.82-18.05,2.51-16.5,4.91-32.92,5.26-49.67,.7-33.01-4.96-65.8-2.93-98.83,4.44-8.96,4.73-17.88-.18-26.78,1.45-33.81-6.78-67.6-.07-101.41,8.36,2.95,16.98,3.42,25.79,3.3,10.12-.13,20.47-1.51,30.07,3.33,.04,11.4,.5,22.81,0,34.18-.42,9.52,3.01,13.38,12.84,13.14,18.83-.47,37.68-.04,56.51,.01,3.57,34.58,3.11,69.27,2.93,103.95-.85,18.19-12.48,20.73-27.84,21.34-12.32,.49-18.36,11.24-19.48,22.26-5.04,49.69-3.53,99.6-2.98,149.42,.3,27.39,10.95,38.96,32.56,39.15,.78,34.1-4.58,68.92,11.91,101.18-8.85,9.38-14.54,20.87-21.56,31.5-20.79,31.45-34.08,66.02-40.41,102.63-12.93,74.82-9.24,150.57-9.25,226.05,0,11.61,5.19,19.29,17.87,21.6,22.65,4.14,45.38,1.07,68.05,1.96,14.19,.12,28.37,.23,42.56,.35-.07,26.55,.05,53.11-.32,79.65-.12,8.65,1.56,16.55,5.82,23.98-.2,.89-.37,1.79-.49,2.7-.41,.74-.5,1.52-.28,2.33-63.33-.08-126.67-.15-190-.23Z"/>
  <path class="cls-15" d="M1668.25,1630.05c-.67,14.17-14.28,9.68-21.36,13.34-19.17,9.9-39.45,18.45-60.21,24.24-31.98,8.93-62.87,21.24-95.58,28.16-21.47,4.54-43.51,8.2-64.08,17.03-15.11,6.49-31.95,5.32-47.82,8.86-52.49,11.7-106.05,16.44-159.23,23.5-16.58,2.2-33.63,2.74-50.23,2.9-49.04,.47-98.07,7.17-147.01,3.23-58.97-4.74-118.29-3.23-177.05-13.29-26.41-4.52-53.28-8.52-80.28-10.68-15.88-1.27-31.2-8.34-47.07-11.2-43.26-7.78-85.31-20.37-126.79-34.12-15.81-5.24-31.97-12.33-47.7-18.21-18.14-6.78-37.65-10.64-55.55-19.04-6.81-3.2-13.86-5.81-14.79-14.75,3.96-.16,7.91-.47,11.87-.47,390.34-.04,780.67-.07,1171.01-.06,3.95,0,7.91,.36,11.86,.56Z"/>
  <path class="cls-15" d="M1665.83,561.8c5.3,11.61,15.23,17.89,26.62,21.7,17.13,5.73,32.96,14.16,48.75,22.58,6.26,3.34,12.13,6.35,19.35,5.75,.02,29.85,.04,59.7,.05,89.55-20.74,.67-41.47,1.35-62.21,2.03-1.09-8.28-2.84-16.54-3.16-24.85-1.11-28.32-13.07-40.98-41.33-42.79-3.94-.25-7.91-.06-11.87-.06-70.72,0-141.44-.33-212.15,.19-25.82,.19-51.39,1.44-73.26-15.89-1.79-1.42-4.61-1.55-6.95-2.27,0-49.05,.04-98.09-.04-147.14-.03-19.59-5.98-25.33-25.87-25.48-11.4-.08-22.8-.11-34.2-.16,.21-10.78,.05-21.59,.75-32.35,.61-9.42-2.69-13.46-12.52-12.95-12.73,.66-25.52,.32-38.28,.41-.05-6.96-.1-13.92-.15-20.87,58.39-.36,116.79-.3,175.17-1.39,13.67-.25,16.42,4.46,16.24,17.03-.68,48.48-.34,96.98-.25,145.48,.03,16.49,3.45,20.01,20.02,20.24,19.31,.27,38.62-.11,57.93,.12,52.46,.61,104.93-1.49,157.37,1.12Z"/>
  <path class="cls-5" d="M1608.74,166.97c-4.55-15.53-2.56-31.29-1.29-46.95,.73-9.01,6.5-14.14,15.44-15.24,5.38-.66,10.82-1.1,16.23-1.1,145.58-.05,291.16-.03,436.74,0,26.76,0,32.31,5.45,32.26,32.05-.02,10.85,1.09,21.77-1.37,32.54-3.6,.08-7.2,.16-10.81,.23-1.98-.14-3.95-.39-5.92-.39-153.9-.03-307.79-.05-461.69-.02-3.45,0-6.89,.53-10.34,.82-3.09-.64-6.17-1.28-9.26-1.92Z"/>
  <path class="cls-14" d="M2095.95,168.48c3.6-.07,7.2-.15,10.8-.23,.09,102.6,.25,205.21,.22,307.81,0,17.04-5.3,21.57-24.49,21.58-93.25,.07-186.49,.03-279.74,.02-3.97,0-7.95,.23-11.9,0-7.59-.43-10.83,3.04-10.71,10.56,.17,10.9,.02,21.81-.12,32.71-.2,15.77-4.31,19.98-20.51,20.17-31.23,.36-62.46,.47-93.68,.68-52.44-2.62-104.92-.52-157.37-1.12-19.31-.22-38.62,.15-57.93-.12-16.57-.23-19.99-3.75-20.02-20.24-.09-48.49-.43-96.99,.25-145.48,.18-12.57-2.57-17.29-16.24-17.03-58.38,1.09-116.78,1.03-175.17,1.39-19.22-.3-38.44-.57-57.66-.92-4.46-.08-10.15-.02-9.54-6.23,.49-4.93,5.87-4.22,9.73-4.27,18.25-.25,36.5-.44,54.74-.64,53.49,.2,106.98,.28,160.46,.74,8.51,.07,11.91-2.3,9.66-11.07-1.09-4.27-1.14-8.81-1.65-13.22-.14-9.81,.7-19.76-.68-29.39-1.78-12.44,3.35-18.01,14.89-20.38,7.65-1.57,15.03-4.46,22.52-6.75,2.28,.68,4.75,1.09,5.36,4.01-6.65,2.23-13.31,4.46-19.96,6.69-11.3,1.69-16.66,5.71-14.61,19.49,2.15,14.42,7.26,28.29,7.58,43,.08,3.43,.99,7.17,5.73,7.09,5.3-.09,4.46-4.29,4.58-7.54,.26-7.39,.29-14.79,.41-22.19,3.34,.39,6.68,.79,10.03,1.18-.15,4.38,.17,8.85-.53,13.14-2.67,16.23,6.99,16.78,19.03,16.21,15.37-.73,7.59-9.77,6.41-16.3-.76-4.22,.65-7.56,2.73-10.89,1.47,.63,2.93,1.26,4.4,1.88,.48,8.93-.99,21.88,8.53,23.59,14.78,2.65,23.21,14.47,36.04,19.14,2.87,1.05,8.21,2.81,6.4,7.75-2.57,7.01-7.32,1.61-10.58,.57-10.27-3.27-17.44-13.6-30.43-14.38,.73,5.66,1.18,9.99,1.87,14.28,.6,3.73,.58,7.15-3.94,8.18-5.08,1.16-7.25-1.91-8.13-6.31-.48-2.42-.95-4.88-1.08-7.34-.8-15.06-12.32-9.1-20.07-10.12-8.8-1.16-10.69,4.02-10.66,11.74,.19,49.53,.33,99.06-.08,148.59-.08,9.51,3.56,11.63,12.2,11.61,101.1-.22,202.2-.26,303.29-.02,9.44,.02,12.82-2.5,12.75-12.48-.51-66.36-.41-132.73-.51-199.1,3.77-.15,7.54-.3,11.32-.45-.01,45.1,.2,90.2-.21,135.3-.09,9.75,1.99,13.99,12.98,13.95,96.7-.4,193.4-.35,290.09-.11,10.37,.03,13.73-3.67,13.69-13.94-.4-101.59-.41-203.19-.53-304.78Z"/>
  <path class="cls-8" d="M1760.61,701.39c-.02-29.85-.03-59.7-.05-89.55,9.09-5.81,19.08-1.95,28.65-2.65,.14,20.66,.22,41.33,.48,61.99,.05,4.22-.67,10.09,5.91,9.58,5.56-.43,4.09-6,4.16-9.57,.42-20.65,.55-41.31,.78-61.97,7.71-.1,15.42-.2,23.14-.3,.17,20.19,.26,40.38,.59,60.57,.07,4.6-1.53,11.33,5.64,11.53,7.38,.2,5.84-6.51,5.89-11.14,.24-20.19,.28-40.39,.4-60.58,7.52-.18,15.03-.36,22.55-.53,.21,20.27,.31,40.54,.72,60.81,.09,4.47-2,11.56,5.48,11.4,6.6-.14,5.96-6.69,6.01-11.58,.19-19.78,.29-39.56,.43-59.34,4.39-.4,8.8-.7,13.18-1.2,11.64-1.34,16.05,4.51,15.98,15.42-.12,19.65-.01,39.31,0,58.96-.03,20.77,.12,41.55-.13,62.32-.28,23.02-16.19,38.83-39.06,38.86-33.65,.04-67.3-.15-100.95-.24,.07-27.58,.13-55.17,.2-82.75Z"/>
  <path class="cls-11" d="M1447.19,291.07c-.61-2.91-3.08-3.33-5.36-4.01-4.52-12.46-10.44-24.6-8.75-38.5,.17-1.38-.1-3.39-.99-4.24-18.18-17.17-17.86-39.6-16.7-63.76-9.03,3.8-11.28,11.36-15.67,16.73-3.72,4.57-7.75,8.26-13.83,5.79-6.59-2.67-5.37-8.18-4.34-13.89,2.28-12.61,6.99-24.79,6.9-37.83,2.39-1.06,6.62,1.15,7.09-3.24,.71-6.61-5.62-5.41-9.01-7.47,8.12-4.02,12.52-8.95,8.32-19.09-2.29-5.52-1.36-12.38-1.88-18.63,3.3-.78,6.12-2.24,7.86-5.31,5.88-3.12,11.76-6.25,17.64-9.37,2.05-.45,4.11-.91,6.16-1.36,25.44,.64,44.61,10.81,54.96,35.23,8.61,20.31,6.4,25.51-14.75,31.88-3.24,.98-6.39,2.25-10.54,3.73,2,2.57,3.82,6.24,4.86,6.04,21.99-4.38,31.03,16.75,47.22,23.6,1.09,.33,2.18,.66,3.26,1-.2-1.15-.4-2.3-.6-3.45-4.51-14.1-9.02-28.19-13.53-42.3,1.4-1.12,2.81-2.24,4.21-3.36,10.97,16.08,14.82,35.24,22.68,52.67,1.74,3.87,1.01,8-2.91,10.5-4,2.55-7.77,.62-10.94-1.84-8.59-6.67-16.86-13.75-25.5-20.34-3.7-2.82-7.28-8.12-12.72-5.15-4.64,2.53-2.88,7.87-2.6,12.2,.83,12.85,1.84,25.69-2.86,38.15-1.22,3.22-2.79,6.94,2.42,8.26,33.22,8.43,53.91,33.65,76.28,56.64,.67,.68,1.67,1.04,2.51,1.55,1.73,7.43-1.35,12.36-8.24,14.87-18,6.56-36.23,11.34-55.46,5.4,.29-7.51,9.77-11.85,8-21.12-9.54,3.54-12.91,13.76-22.11,15.78-7.02-5.26-14.04-10.52-21.07-15.78Zm-56.18-103.92c1.01,.64,2.02,1.27,3.03,1.9,5.87-7.02,11.93-13.9,17.56-21.11,4.11-5.27,17.82-2.8,13.66-13.1-2.21-5.47-11.88-7.94-18.18-11.76-.42-.26-.79-.62-1.23-.82-3.43-1.56-5.34-.7-6.13,3.25-2.78,13.9-5.78,27.76-8.7,41.64Zm55.72-84.95c-1.03-3.28-3.23-5.21-6.48-4.95-3.94,.31-6.58,2.67-5.53,6.81,.78,3.06,3.56,4.65,6.87,4.06,3.21-.57,5.19-2.51,5.15-5.91Z"/>
  <path class="cls-5" d="M1482.36,312.18c19.24,5.95,37.47,1.17,55.47-5.39,6.88-2.51,9.97-7.44,8.24-14.87,20.43-3.38,41.09,.05,61.57-1.99,3.44,1.72,6.91,1.14,10.38,.11,39.55,.2,79.11,.65,118.66,.55,44.12-.12,46.57-4.05,43.25,47.49-3.77,.15-7.54,.3-11.32,.44-94.73-.23-189.45-.43-284.18-.75-4.78-.02-8.77,.78-11.44,5.06-1.47-.63-2.93-1.26-4.4-1.88,0,0,.14,.19,.14,.19,2.21-3.36,3.55-6.94,2.59-11.04-2.26-9.64,3.1-14.57,11.05-17.91Z"/>
  <path class="cls-7" d="M1668.25,1630.05c-3.95-.19-7.91-.56-11.86-.56-390.34,0-780.67,.02-1171.01,.06-3.96,0-7.91,.31-11.87,.47-37.54-.17-75.08-.35-112.63-.52-3.95-.02-7.91,.04-11.86-.08-3.52-.11-7.91-.46-8.21-4.58-.43-5.99,5.13-5.04,8.66-5.09,24.71-.35,49.42-.41,74.13-.57,63.33,.08,126.67,.16,190,.23,58.88,.05,117.77,.11,176.66,.16,67.21-.05,134.42-.11,201.62-.16,58.87,.02,117.74,.04,176.61,.06,176.03,.03,352.06,.06,528.08,.1,4.46,0,8.92,.14,13.37,.21,4.83,9.83-2.62,9.31-8.37,9.55-11.1,.46-22.22,.49-33.34,.7Z"/>
  <path class="cls-10" d="M1400.83,97.64c-1.74,3.07-4.56,4.53-7.86,5.31-13.3-10.92-22.45-25.64-35.86-36.78-26.48-21.99-56.63-8.52-76.19,8.82-4.89,4.33-3.32,8.43,3.16,10.95,5.32,2.06,8.27,6.93,4.09,11.69-4.37,4.98-9,.91-12.75-2.43-8.95-7.98-8.01-19.69,2.61-27.71,11.49-8.68,23.87-15.79,38.26-18.66,7.05-1.4,10.87-4.12,6.48-12.05-3.87-6.98-.32-13.73,3.1-19.54,13.67-23.21,61.03-22.87,74.65,.26,12.68,21.53,19.68,45.01,24.1,69.4-2.05,.45-4.11,.9-6.16,1.36-3.65-19.04-11.12-36.82-17.8-54.89-12.7-34.36-32.57-32.06-62.78-17.82-8.4,3.96-5.98,30.29,2.87,33.74,20.69,8.07,35.08,23.39,48.28,40.21,3.17,4.04,6.38,7.55,11.79,8.13Z"/>
  <path class="cls-7" d="M1893.11,1629.49c-23.31,0-46.62,.06-69.93-.07-4.22-.02-10.54,.77-10.35-5.25,.19-6.04,6.52-4.67,10.7-4.68,46.62-.14,93.24-.2,139.86-.14,4.16,0,10.77-1.43,10.99,4.32,.26,6.82-6.64,5.75-11.34,5.78-23.31,.11-46.62,.05-69.93,.04Z"/>
  <path class="cls-14" d="M1836.2,609.29c-.12,20.19-.16,40.39-.4,60.58-.05,4.63,1.49,11.35-5.89,11.14-7.17-.2-5.57-6.93-5.64-11.53-.33-20.19-.42-40.38-.59-60.57,4.36-6.03,8.56-6.78,12.53,.37Z"/>
  <path class="cls-14" d="M1871.4,610.03c-.14,19.78-.24,39.56-.43,59.34-.05,4.89,.59,11.44-6.01,11.58-7.48,.16-5.39-6.93-5.48-11.4-.42-20.27-.51-40.54-.72-60.81,5.02-7.57,9.01-4.85,12.65,1.28Z"/>
  <path class="cls-7" d="M1618.02,290.03c-3.47,1.03-6.94,1.62-10.38-.11,.37-40.99,.73-81.97,1.1-122.96,3.09,.63,6.18,1.27,9.26,1.91,0,40.38,.01,80.77,.02,121.15Z"/>
  <path class="cls-7" d="M1800.53,609.21c-.23,20.66-.36,41.32-.78,61.97-.07,3.56,1.4,9.13-4.16,9.57-6.58,.51-5.85-5.35-5.91-9.58-.26-20.66-.34-41.33-.48-61.99,3.79-6.56,7.57-7.01,11.33,.03Z"/>
  <path class="cls-14" d="M1499.72,139.28c-1.4,1.12-2.81,2.23-4.21,3.36-8.31-10.39-6.59-18.32,5.67-23.96,7.34-3.38,10.13-8.86,7.08-16.85-1.5-3.92-1.75-8.2,2.78-10.23,5.08-2.29,8.37,1.35,11.12,4.94,6.82,8.89,3.78,19.91-7.93,29.19-5.21,4.12-12.8,5.69-14.5,13.57Z"/>
  <path class="cls-7" d="M1386.53,140.67c3.39,2.06,9.72,.86,9.01,7.47-.47,4.39-4.7,2.18-7.09,3.24-7.32-1.08-14.86-.85-21.85-3.98-8.06-3.6-12.84-9.38-12.13-18.45,.34-4.36,1.05-9.59,6.78-10.07,5.19-.43,6.54,4.13,6.75,8.1,.67,12.29,12.43,9.06,18.53,13.69Z"/>
  <path class="cls-4" d="M539.72,1025.5c-21.61-.19-32.25-11.76-32.56-39.15-.55-49.82-2.07-99.73,2.98-149.42,1.12-11.02,7.16-21.77,19.48-22.26,15.35-.61,26.99-3.15,27.84-21.34,1.63,18.65,14.01,19.76,28.68,18.01,6.34-.76,12.87-.45,19.28-.03,17.92,1.17,35.44,5.56,43.31,23.15,7.64,17.07,15.9,33.88,23.19,51.08,8.72,20.59,13.09,24.13,34.72,23.54,123.95,0,247.89-.02,371.84-.03,12.05-2.9,26.24-.91,33.79-14.26,5.33-9.42,11.02-18.72,13.91-29.29,3.14-11.48,8.75-21.94,15.17-31.65,11.42-17.3,30.46-17.8,48.61-19.74,11.55-1.24,23.58,3.16,34.71-2.94,7.92,.22,16.19-.94,23.69,.94,19.29,4.85,26.83,15.91,26.83,36.41,0,46.11,.01,92.22,0,138.32-.01,28.16-2.28,31.09-29.63,38.65-1.86-.64-3.79-2.01-5.56-1.82-35.38,3.91-70.87,.76-106.28,1.87-25.1,.79-50.26-1.73-75.29,1.48-15.09-4.77-30.26-4.91-45.49-.61-5.92-.31-11.83-.89-17.75-.89-75.65-.04-151.31,0-226.96,.02-14.27-3.12-28.54-3.49-42.81,.05-52.69-.08-105.38-.35-158.06-.08-9.2,.05-18.42-3.8-27.6-.01Zm656.36-101.23c10.38,0,20.77-.2,31.15,.06,8.9,.22,12.5-3.97,12.29-12.61-.25-9.88,.01-19.77-.05-29.65-.25-36.5,3.95-31.52-32.68-32.3-19.26-.41-35.02,3.56-47.78,20.18-8.94,11.64-4.99,24.34-8.42,36.22-3.42,11.84,2.67,18.69,15.83,18.18,9.87-.38,19.78-.08,29.66-.07Zm-611.19-.02c10.92,0,21.83-.08,32.75,.03,6.75,.06,12.53-2.68,13.58-9.18,2.85-17.64-1.14-34.64-11.58-48.75-9.85-13.31-55.13-22.15-70.81-15.86-5.02,2.01-6.13,6.01-6.13,10.75,0,17.36,.05,34.71,.02,52.07-.01,7.36,3.54,10.95,10.92,10.92,10.42-.05,20.84-.01,31.26,.02Zm595.97,47.49c0,.05,0,.1,0,.15-13.8,0-27.61-.07-41.41,.06-3.01,.03-6.19,.87-5.74,4.93,.33,3.02,3.01,3.7,5.53,3.7,27.61,.05,55.21,.04,82.82-.03,3.16,0,6.63-1.38,6.61-4.6-.03-4.95-4.63-4.13-7.87-4.16-13.31-.12-26.62-.05-39.93-.05Zm-578.84,8.85s0,.07,0,.1c13.37,0,26.73,.03,40.1-.03,3.06-.01,6.51-.58,6.6-4.31,.09-3.81-3.35-4.43-6.41-4.44-26.73-.07-53.46-.1-80.19-.07-3.03,0-6.53,.44-6.6,4.25-.07,3.77,3.34,4.46,6.41,4.47,13.37,.07,26.73,.03,40.1,.03Z"/>
  <path class="cls-4" d="M1218.33,1507.83c-14.7,5.67-30.05,1.36-45.02,2.93-61.93-5.34-123.98-1.74-185.98-2.16-.32-6.42-.9-12.84-.91-19.26-.05-114.5-.03-228.99-.02-343.49,0-23.39,4.18-28.47,26.83-32.65,15.4,4.05,30.69,4.65,45.76-1.45,40.07,.06,80.19-1.1,120.17,.82,14.9,.71,35.29-5.52,42.64,16.94-.06,112.88-.15,225.75-.14,338.63,0,13.34,.36,26.67-3.34,39.69Z"/>
  <path class="cls-3" d="M1224.65,811.18c-11.13,6.1-23.16,1.7-34.71,2.94-18.14,1.94-37.18,2.44-48.61,19.74-6.41,9.72-12.02,20.17-15.17,31.65-2.9,10.57-8.58,19.87-13.91,29.29-7.55,13.35-21.73,11.36-33.78,14.26,15.06-55.32,22.53-111.72,23.83-168.98,17.07-1.89,20.85-8.8,16.55-24.64-4.82-17.77-17.5-20.36-32.66-20.35-128.84,.02-257.68,.06-386.51-.13-7.61-.01-14.83,1.46-21.84,3.53-12.4,3.66-17.73,16.08-16.16,32.65,1.29,13.63,11.75,6.71,18.13,8.93-1.11,24.71,5.38,48.53,8.15,72.76,3.73,32.71,8.41,64.94,18.67,96.25-21.63,.59-26-2.95-34.72-23.54-7.29-17.21-15.55-34.01-23.19-51.08-7.88-17.6-25.39-21.99-43.31-23.15-6.41-.42-12.94-.73-19.28,.03-14.67,1.75-27.05,.63-28.68-18.01,.18-34.68,.64-69.37-2.93-103.95,2.9-3.43,2.36-7.11,.79-10.87-.56-66.89-2.23-133.79,2.08-200.62,4.94-9.87,4.6-19.8,.28-29.76-1.27-9.16,2.06-17.86,2.65-26.83,5.06-16.77,18.85-11.01,30.14-11.67-3.3,8.98-5.7,17.95,.72,26.67-.17,7.91-.33,15.81-.5,23.72-.63,.74-1.78,1.46-1.82,2.24-2.01,37.23-2.53,74.47,.06,111.69,.05,.77,1.23,1.45,1.89,2.17,.69,5.99,1.38,11.99,2.06,17.98-3.38,3.65-2.92,6.7,1.45,9.12,1.36,4.19,2.69,8.39,4.08,12.58,6.34,19.08,7.34,19.39,21.47,6.77,.62,3.9-.15,7.36-2.22,10.87-5.17,8.79,.55,8.24,6.54,7.21,11.43-.61,22.87-1.93,34.3,.02,3.36,5.38,8.79,3.56,13.46,3.56,59.7,.1,119.4,.09,179.11-.02,4.67,0,10.09,1.82,13.49-3.51,2.66-.89,5.32-1.77,7.98-2.66,6.81-.68,12.77,5.26,19.83,2.53,32.07-.24,64.15-.72,96.22-.68,56.74,.08,113.48,.48,170.22,.75,8.19,7.18,16.09,1.71,20.01-3.69,10.96-15.08,18.21-32.01,13.95-51.59,.21-2.02,.41-4.04,.62-6.07,5.99-2.84,4.11-8.39,4.17-13,.67-52.08,.68-104.15-3.52-156.12,10.34-1.48,20.54-.99,30.54,2.24,.11,89.01,.22,178.01,.33,267.02,.07,2.77,.14,5.54,.21,8.31-.16,41.15-.33,82.3-.49,123.45Z"/>
  <path class="cls-8" d="M1349.67,617.73c2.34,.73,5.16,.85,6.95,2.27,21.87,17.33,47.44,16.08,73.26,15.89,70.71-.52,141.44-.18,212.15-.19,3.96,0,7.93-.19,11.87,.06,28.26,1.81,40.22,14.48,41.33,42.79,.33,8.31,2.07,16.57,3.16,24.86-4.24,3.91-3.22,9.09-3.23,13.94-.02,22.25,.08,44.51,.14,66.76-78.19,.08-156.38,.79-234.56-.11-27.22-.31-48.89-16.98-70.16-31.95-32.49-22.87-58.63-52.82-86.88-80.41-3.8-3.71-6.76-8.79-12.96-9.19-.66-7.72-1.31-15.43-1.97-23.15,3.36,.56,6.72,1.13,10.08,1.69,24.47,4.13,43.33-4.51,50.81-23.29Z"/>
  <path class="cls-3" d="M1218.33,1507.83c3.7-13.01,3.34-26.35,3.34-39.69,0-112.88,.08-225.75,.14-338.62,3.05-.99,6.11-1.98,9.17-2.97,30.17,36.27,52.83,76.55,61.8,123.19,7.95,41.32,11.17,83.24,9.13,125.35-1.79,37.02,4.6,73.96,.33,111.01-1.41,12.26-5.61,20.45-18.96,22.51-21.75,3.35-43.34,2.7-64.95-.77Z"/>
  <path class="cls-6" d="M987.34,1508.6c62,.41,124.04-3.19,185.98,2.15,.06,27.56-.05,55.13,.3,82.68,.1,7.76-2.42,14.43-5.79,21.05-1.78,1.18-2.66,2.22,.4,2.68,.4,.74,.49,1.51,.28,2.32-58.87-.02-117.74-.04-176.61-.06-9.92-36.6-3.86-73.85-4.56-110.82Z"/>
  <path class="cls-10" d="M1230.98,1126.55c-3.06,.99-6.11,1.98-9.17,2.97-7.35-22.46-27.74-16.23-42.64-16.94-39.98-1.92-80.1-.76-120.15-.82-1.87-28.22,2.28-56.49-.64-84.71,25.05-3.22,50.21-.7,75.31-1.49,35.41-1.12,70.91,2.03,106.28-1.87,1.76-.19,3.7,1.17,5.56,1.82-.04,14.88-.07,29.76-.11,44.64-3.34,2.52-2.97,5.84-1.97,9.28-.29,16.73-3.93,32.58-12.47,47.13Z"/>
  <path class="cls-10" d="M1695.3,784.12c-.06-22.25-.16-44.51-.14-66.76,0-4.84-1.01-10.02,3.23-13.94,20.74-.68,41.48-1.36,62.21-2.04-.06,27.59-.13,55.17-.2,82.76-21.7-.01-43.41-.02-65.11-.03Z"/>
  <path class="cls-7" d="M1288.78,639.32c.66,7.72,1.31,15.43,1.97,23.15-1.64,26.58-1.64,26.77-28.87,26.5-12.25-.12-24.58,1.46-36.74-1.24-.07-2.77-.14-5.54-.22-8.32,8.9-.19,17.81-.5,26.72-.52q28.37-.06,28.66-27.57c.04-3.95,.36-7.9,.55-11.86,2.64-.05,5.29-.09,7.93-.14Z"/>
  <path class="cls-4" d="M1243.45,1079.42c-1-3.44-1.36-6.76,1.97-9.28,4.43,4.17,3.31,7.17-1.97,9.28Z"/>
  <path class="cls-1" d="M1168.23,1617.17c-3.06-.46-2.18-1.5-.4-2.68,.16,.89,.3,1.78,.4,2.68Z"/>
  <path class="cls-4" d="M608.89,1510.76c-14.19-.12-28.37-.23-42.56-.35-.27-10.83-6.28-20.14-6.21-31.57,.63-109.79,.5-219.58,.12-329.37-.03-7.61,3.91-15.19,.31-22.8,11-20.37,30.28-15.39,47.16-13.99,39.43,3.27,78.77,2.15,118.15,.7,13.92,.27,27.85,.52,41.78,.78,10.24,2.92,16.37,9.11,19.37,19.83,8.48,30.36,7.31,61.79,7.95,92.43,1.99,94.88,.5,189.83,.37,284.76-62.14-5.54-124.29-2.05-186.44-.42Z"/>
  <path class="cls-2" d="M590.46,409.62c-11.3,.66-25.09-5.1-30.14,11.67-3.59-4.71-2.89-13.78-12.54-12.34-1.73-3.13-3.45-6.26-5.18-9.39-.02-15.25-1.6-30.87,7.01-44.59,5-7.97,15.31-12.2,16.54-22.97,4.57,7.12,10.19,9.9,18.53,5.69,3.38-1.71,7.59-2.08,11.48-2.46,32.51-3.2,65.12-3.28,97.75-3.27,174.82,.03,349.63-.11,524.45-.2,7.36,11.14,22.33,18.35,18.27,35.38-18.25,.21-36.5,.39-54.74,.64-3.86,.05-9.25-.66-9.73,4.27-.61,6.2,5.08,6.15,9.54,6.23,19.22,.36,38.44,.62,57.66,.92,.05,6.96,.1,13.92,.15,20.87-.95,3.08-1.9,6.17-2.86,9.25-4.01,1.02-8.03,2.04-12.04,3.07-10-3.23-20.2-3.72-30.54-2.24-5.62-1.37-11.14-5.89-16.98-.55-5.95,.08-11.9,.24-17.85,.24-188.48,.07-376.95,.13-565.43,.19-1.11-.14-2.22-.28-3.34-.42Z"/>
  <path class="cls-8" d="M429.57,763.6c-2.04,33.03,3.63,65.82,2.93,98.83-.36,16.76-2.76,33.18-5.26,49.67-2.06,13.57-10.69,17.9-22.82,18.05-14.31,.18-28.62,.1-42.94,.13-10.38-.03-20.8-.58-31.14,.04-16.62,1-33.57-3.3-49.88,2.92-5.14-6.64-3.12-14.47-2.5-21.49,5.67-64.18,2.27-128.46,2.13-192.67-.09-39.5,16.69-71.29,38.36-101.56,16.87-23.55,35.74-45.87,57.19-65.22,13.08-11.8,24.48-25.45,38.82-35.86,7.87,.81,9.16,6.16,9.09,12.75-.13,11.89-.04,23.79-.03,35.69,.03,23.66-1.2,47.43,5.78,70.52-6.71,33.81,1.52,67.61,.07,101.41-4.49,8.96-4.72,17.88,.18,26.78Z"/>
  <path class="cls-10" d="M1218.36,331.76c-174.82,.08-349.63,.23-524.45,.2-32.63,0-65.24,.07-97.75,3.27-3.89,.38-8.1,.75-11.48,2.46-8.35,4.21-13.96,1.43-18.53-5.69,.01-3.97,.02-7.93,.04-11.9,4.32-3.36,3.08-7.84,2.45-12.2,3.52-18.48,18.13-24.79,33.46-29.84,24.63-8.11,50.42-10.87,75.97-10.99,162.55-.77,325.1-.7,487.65-.71,32.79,0,52.8,25.27,52.64,65.39Z"/>
  <path class="cls-3" d="M560.55,1126.68c3.6,7.61-.34,15.19-.31,22.8,.38,109.79,.51,219.58-.12,329.37-.07,11.43,5.94,20.74,6.21,31.57-22.67-.9-45.4,2.17-68.05-1.96-12.68-2.32-17.87-9.99-17.87-21.6,0-75.48-3.68-151.23,9.25-226.05,6.33-36.62,19.62-71.18,40.41-102.63,7.02-10.63,12.72-22.12,21.56-31.5,2.97,0,5.95,0,8.92,0Z"/>
  <path class="cls-8" d="M455.35,1074.36c.1,8.03,.2,16.05,.31,24.08-19.72,.08-39.45-.03-59.16,.38-4.76,.1-13.18-2.88-12.81,5.16,.33,7.2,8.54,4.63,13.49,4.7,19.72,.31,39.45,.2,59.17,.25-.03,4.94-.09,9.88-.07,14.82,.05,9.7-4.73,14.73-14.44,14.74-42.01,.04-84.02,.52-126.01-.2-22.66-.39-34.63-14.37-35.35-37.07-1.07-33.47,3.05-67.08-2.56-100.45-.5-2.97,.12-5.93,2.75-8.01,27.04,1.78,53.84-3.05,80.82-3.01,23.53-.14,46.86,.52,70.16,5.45,24.08,5.1,26.47,7,23.52,32.24-18.78,.14-37.57,0-56.34,.6-5.61,.18-15.37-3.61-15.31,5.87,.05,7.82,9.25,5.18,14.71,5.3,19.27,.41,38.56,.37,57.84,.49-.27,7.76-.53,15.53-.79,23.29-20.21,.26-40.41,.45-60.62,.84-4.17,.08-10.75-1.55-11.1,4.16-.45,7.11,6.64,5.73,11.21,5.8,20.2,.34,40.4,.41,60.61,.57Z"/>
  <path class="cls-6" d="M608.89,1510.76c62.15-1.63,124.31-5.11,186.45,.42,.09,18.13,.34,36.27,.22,54.4-.11,16.53,2.35,33.42-5.89,48.99-1.77,1.14-2.52,2.14,.36,2.63,.38,.76,.46,1.56,.24,2.38-58.89-.05-117.77-.11-176.66-.16-.22-.82-.12-1.59,.29-2.33,2.96-.39,2.23-1.46,.49-2.7-4.26-7.43-5.94-15.33-5.82-23.98,.37-26.55,.25-53.1,.32-79.65Z"/>
  <path class="cls-4" d="M429.32,635.41c-6.99-23.09-5.75-46.86-5.78-70.52-.02-11.9-.1-23.79,.03-35.69,.07-6.59-1.22-11.94-9.09-12.75,12.92-14.35,8.66-31.94,9.04-48.6,.4-17.55,5.3-22.57,23.11-22.71,13.32-.11,26.64-.12,39.96-.17,3.56-.15,7.14-.22,9.77-3.2,4.62,1.75,9.18,4.06,14.31,3.32,16.23-2.35,19.85,8.24,19.93,20.59,.35,52.52,.13,105.04,.18,157.56,0,9.51-4.17,14.7-13.97,15.53-6.86,.57-13.64,2.01-20.46,3.07-3.77-2.6-7.5-2.9-11.17,.22-9.6-4.84-19.95-3.47-30.07-3.33-8.81,.12-17.43-.36-25.79-3.3Z"/>
  <path class="cls-10" d="M560.55,1126.68c-2.97,0-5.95,0-8.92,0-16.49-32.25-11.13-67.08-11.91-101.18,9.18-3.78,18.4,.06,27.61,.01,52.69-.27,105.38,0,158.05,.08-.63,29.27-1.48,58.54,.49,87.79-39.39,1.45-78.73,2.57-118.16-.7-16.88-1.4-36.16-6.38-47.16,13.99Z"/>
  <path class="cls-10" d="M361.46,989.74c-26.98-.03-53.78,4.79-80.82,3.01-.06-19.83-.11-39.67-.17-59.5,16.3-6.22,33.25-1.92,49.87-2.92,10.34-.62,20.75-.07,31.14-.04,0,19.82-.01,39.63-.02,59.44Z"/>
  <path class="cls-14" d="M485.18,642.05c3.66-3.12,7.39-2.82,11.17-.22-.06,8.37,.35,16.77-.3,25.09-.72,9.25,3.23,11.97,12,11.7,15.74-.5,31.51-.12,47.26-.1,1.57,3.75,2.11,7.43-.79,10.87-18.84-.06-37.69-.49-56.51-.01-9.83,.25-13.26-3.61-12.84-13.14,.5-11.37,.05-22.78,0-34.18Z"/>
  <path class="cls-14" d="M456.05,1039.69c-19.28-.13-38.57-.08-57.84-.49-5.46-.12-14.66,2.52-14.71-5.3-.06-9.47,9.7-5.69,15.31-5.87,18.77-.59,37.56-.45,56.34-.6,6.11,3.66,7.12,7.69,.9,12.26Z"/>
  <path class="cls-7" d="M455.35,1074.36c-20.2-.17-40.41-.23-60.61-.57-4.57-.08-11.65,1.31-11.21-5.8,.36-5.71,6.93-4.08,11.1-4.16,20.2-.39,40.41-.58,60.62-.84,5.89,3.74,5.19,7.54,.09,11.38Z"/>
  <path class="cls-7" d="M496.36,441.77c-2.63,2.98-6.22,3.05-9.77,3.2q-4.9-45.19,39.79-45.18c5.41,0,10.82-.15,16.22-.23,1.73,3.13,3.45,6.26,5.18,9.39-6.93,.2-13.85,.56-20.78,.57q-32.05,.04-30.64,32.24Z"/>
  <path class="cls-7" d="M456.34,1108.93c-19.72-.05-39.45,.06-59.17-.25-4.95-.08-13.16,2.49-13.49-4.7-.36-8.04,8.05-5.06,12.81-5.16,19.72-.41,39.44-.3,59.16-.38,6.08,3.12,6.39,6.61,.69,10.49Z"/>
  <path class="cls-4" d="M429.57,763.6c-4.9-8.89-4.67-17.82-.18-26.78,4.91,8.89,4.62,17.82,.18,26.78Z"/>
  <path class="cls-2" d="M568.64,307.9c.63,4.36,1.87,8.84-2.45,12.2-3.88-5.01-4.3-9.33,2.45-12.2Z"/>
  <path class="cls-1" d="M614.39,1614.4c1.74,1.24,2.47,2.3-.49,2.7,.12-.91,.28-1.81,.49-2.7Z"/>
  <path class="cls-4" d="M1288.78,639.32c-2.64,.05-5.29,.09-7.94,.13-3.96-.28-7.9-.7-11.85-.8-21.34-.54-23.55-2.76-23.55-24.25,0-44.56,0-89.11,0-133.67q.01-35.44,35.92-35.66c2.73-.04,5.45-.08,8.18-.12,11.4,.05,22.8,.08,34.2,.16,19.9,.14,25.84,5.88,25.87,25.48,.08,49.05,.04,98.09,.04,147.14-7.48,18.78-26.33,27.42-50.81,23.29-3.36-.57-6.72-1.13-10.08-1.69Z"/>
  <path class="cls-7" d="M1289.55,444.96c-2.73,.04-5.45,.08-8.18,.12-3.13-11.36,4.88-27.65-4.15-33.49-8.82-5.7-23.84-1.82-36.13-2.15-1.48-.04-2.96-.07-4.44-.11,.95-3.08,1.9-6.17,2.86-9.25,12.76-.09,25.55,.25,38.28-.41,9.83-.51,13.14,3.53,12.52,12.95-.7,10.75-.54,21.56-.75,32.35Z"/>
  <path class="cls-9" d="M1618.02,290.03c0-40.39-.01-80.77-.02-121.15,3.45-.28,6.89-.81,10.34-.81,153.9-.03,307.79,0,461.69,.02,1.97,0,3.95,.25,5.92,.39,.13,101.6,.14,203.19,.54,304.79,.04,10.27-3.33,13.97-13.69,13.94-96.7-.24-193.4-.29-290.09,.11-10.99,.04-13.07-4.19-12.98-13.95,.4-45.1,.19-90.2,.21-135.3,3.31-51.55,.87-47.61-43.25-47.49-39.55,.11-79.1-.34-118.66-.55Zm198.33,70.45c.27,5.44,.44,10.89,.84,16.33,1.06,14.27,11.76,13.06,21.79,14.15,10.99,1.19,13.8-3.94,13.88-13.56,.1-11.94,6.22-20.21,16.55-26.26,11.12-6.52,21.17-14.58,30.19-23.96,27.79-28.91,31.66-67.78,9.55-99.01-20.99-29.64-65.27-41.81-98.66-27.12-20.34,8.95-32.94,28.98-31.16,49.53,1.55,17.79,11.74,27.57,28.51,28.14,8.29,.28,12.93-1.87,13.49-11.2,.71-11.83,5.88-20.84,18.9-23.29,10.22-1.92,19.23,.07,24.76,9.14,6.62,10.86,7.42,22.25-.07,33.53-5.61,8.44-13.34,14.53-20.98,20.87-16.49,13.68-31.02,28.52-27.59,52.72Zm236.69-40.47c.2-35.06-24.71-57.81-56.43-53.63-17.15,2.26-31.76,18.01-30.82,32.76,.48,7.62,4.83,11.4,11.36,13.9,6.45,2.47,9.52-.23,12.87-5.83,6.2-10.36,14.88-9.93,21.56,.2,6.73,10.2,3.78,24.88-7.09,30.8-8.21,4.47-17.13,7.65-25.86,11.11-9.76,3.88-16.83,10.43-20.27,20.33-2.67,7.71,.02,13.83,7.67,16.87,5.36,2.14,11.71,10.16,16.72,1.86,10.17-16.88,27.35-21.87,43.62-28.85,18.24-7.83,28.65-20.77,26.66-39.51Zm-363.82-121.92c-17.15,0-31.93,9.06-37.51,25.67-5.33,15.85,.7,29.78,11.36,42.15,6.07,7.04,13.69,8.25,21.45,5.86,7.78-2.39,4.36-10.08,4.49-15.46,.5-20.73,.28-20.68,19.93-19.6,3.42,.19,6.92-.07,10.31-.57,9.42-1.38,11.99-6.02,8.08-15.16-5.62-13.12-21.12-22.89-38.1-22.89Zm166.86,233.66c.32-12.58-9.34-22.32-22.23-22.4-13.91-.08-24.99,10.17-25.37,23.47-.32,11.22,12.85,23.59,25.28,23.76,11.77,.16,21.97-11.19,22.32-24.83Zm104.06-31.27c-9.43,.93-17.04,5.2-16.77,15.05,.25,8.99,6.77,16.05,16.09,16,9.27-.04,15.34-6.19,15.46-16.18,.12-9.78-6.03-13.71-14.78-14.87Z"/>
  <path class="cls-9" d="M1472.99,342.82c2.67-4.27,6.66-5.07,11.44-5.06,94.72,.32,189.45,.52,284.18,.75,.11,66.38,0,132.75,.51,199.11,.08,9.98-3.31,12.51-12.75,12.48-101.1-.24-202.2-.2-303.29,.02-8.64,.02-12.28-2.11-12.2-11.61,.41-49.53,.27-99.06,.08-148.59-.03-7.72,1.86-12.9,10.66-11.74,7.74,1.02,19.27-4.94,20.07,10.12,.13,2.46,.59,4.92,1.08,7.34,.88,4.4,3.05,7.47,8.13,6.31,4.52-1.03,4.54-4.45,3.94-8.18-.69-4.29-1.14-8.62-1.87-14.28,12.99,.78,20.16,11.11,30.43,14.38,3.26,1.04,8.01,6.43,10.58-.57,1.81-4.94-3.52-6.7-6.4-7.75-12.84-4.68-21.26-16.49-36.04-19.14-9.52-1.71-8.05-14.65-8.53-23.59Zm219.44,67.47c0-20.14-13.07-37.95-32.97-44.9-18.99-6.64-36.91-1.72-48.96,14.24-7.64,10.12-10.77,21.24-2.74,32.88,3.46,5.03,8.55,6.37,14.4,5.48,4.57-.7,7.11-3.26,7.25-7.91,.19-6.29,.8-12.22,9.07-12.64,7.65-.39,13.05,2.87,17.1,9.5,8.84,14.48-1.37,23.1-9.64,32.11-6.69,7.29-14.8,13.58-17.29,23.68-2.14,8.7-1.51,17.86,8.71,20.43,8.67,2.18,18.92,4.21,20.46-10.77,.92-8.88,6.81-16.02,12.89-22.9,10.03-11.36,21.58-22.24,21.71-39.2Zm-184.64,85.26c15.94,3.9,25.12-6.7,33.39-19.19,3.02-4.57,6.86-8.87,3.78-14.74-2.84-5.43-8.38-3.8-13.1-4.7-8.53-1.63-18.85,5.75-25.04-1.07-5.9-6.5-1.47-17.09-2.28-25.83-.05-.49-.03-.99-.01-1.48,.32-11.72-6.53-12.14-14.49-8.29-16.34,7.89-27.04,28.55-23.34,43.93,4.54,18.91,18.49,34.7,41.09,31.37Zm16.61,32.89c12.89,0,25.79,.06,38.68-.03,4.45-.03,9.69,.28,9.32-6.42-.31-5.58-4.95-5.37-8.89-5.37-26.29-.06-52.57-.06-78.86,0-4.45,.01-9.69-.28-9.32,6.42,.31,5.58,4.94,5.35,8.89,5.38,13.39,.08,26.78,.03,40.17,.03Zm138.21-21.21c.38-5.62-5.23-10.71-13.25-10.62-8.78,.09-16.11,4.73-16.57,15.05-.47,10.52,7.33,13.26,15.39,13.87,9.74,.74,13.91-5.42,14.43-18.29Z"/>
  <path class="cls-5" d="M1447.19,291.07c7.02,5.26,14.04,10.52,21.06,15.76-1.61,10.05-8,19.44-4.24,30.25-7.69,.57-15.38,1.13-23.07,1.7-3.34-.39-6.68-.79-10.03-1.17-2.63-13.15,2.88-27.06-3.69-39.85,6.65-2.23,13.31-4.46,19.96-6.69Z"/>
  <path class="cls-1" d="M1440.94,338.79c7.69-.57,15.38-1.13,23.07-1.7,1.06,1.94,1.89,4.15,4.71,4.05,0,0-.14-.2-.14-.19-2.08,3.34-3.49,6.67-2.73,10.89,1.18,6.54,8.96,15.57-6.41,16.3-12.05,.57-21.7,.02-19.03-16.21,.71-4.29,.38-8.75,.53-13.14Z"/>
  <path class="cls-14" d="M1468.73,341.13c-2.82,.1-3.65-2.11-4.71-4.05-3.76-10.81,2.63-20.21,4.24-30.25,9.2-2,12.57-12.22,22.12-15.76,1.77,9.27-7.71,13.61-8,21.12-7.96,3.33-13.32,8.26-11.06,17.9,.96,4.1-.37,7.68-2.59,11.04Z"/>
  <path class="cls-14" d="M1446.72,102.2c.04,3.4-1.94,5.34-5.15,5.91-3.31,.59-6.09-1-6.87-4.06-1.05-4.14,1.6-6.5,5.53-6.81,3.26-.25,5.46,1.67,6.48,4.95Z"/>
  <path class="cls-1" d="M1509.04,184.93c.2,1.15,.4,2.3,.6,3.45-1.09-.33-2.17-.67-3.26-1,.88-.81,1.77-1.63,2.66-2.45Z"/>
  <path class="cls-15" d="M789.67,1614.57c8.24-15.57,5.78-32.46,5.89-48.99,.12-18.13-.13-36.27-.22-54.4,.13-94.92,1.62-189.87-.37-284.75-.64-30.64,.52-62.07-7.95-92.43-2.99-10.72-9.12-16.91-19.36-19.83,2.17-29.53,5.13-59.06,.54-88.63,75.65-.02,151.31-.06,226.96-.02,5.92,0,11.83,.58,17.73,.89-1.57,28.93-2.36,57.87,.35,86.79-22.65,4.17-26.83,9.25-26.83,32.65,0,114.5-.03,228.99,.02,343.49,0,6.42,.59,12.84,.91,19.26,.7,36.98-5.35,74.23,4.56,110.83-67.21,.05-134.41,.11-201.62,.16,.22-.82,.14-1.62-.24-2.38-.06-.88-.18-1.76-.36-2.63Z"/>
  <path class="cls-10" d="M706.63,909.09c-10.26-31.31-14.94-63.55-18.67-96.25-2.76-24.23-9.25-48.05-8.15-72.76,140.83,0,281.66,0,422.49,.01-1.3,57.26-8.78,113.66-23.83,168.98-123.95,0-247.9,.01-371.84,.02Z"/>
  <path class="cls-9" d="M1196.08,924.27c-9.89,0-19.79-.31-29.66,.07-13.16,.51-19.25-6.34-15.83-18.18,3.43-11.88-.52-24.58,8.42-36.22,12.77-16.62,28.53-20.59,47.78-20.18,36.63,.78,32.44-4.19,32.68,32.3,.07,9.88-.2,19.77,.05,29.65,.22,8.64-3.38,12.83-12.29,12.61-10.38-.26-20.77-.06-31.15-.06Z"/>
  <path class="cls-9" d="M584.89,924.23c-10.42-.02-20.84-.05-31.26,0-7.38,.04-10.93-3.55-10.92-10.92,.03-17.36-.01-34.71-.02-52.07,0-4.74,1.11-8.74,6.13-10.75,15.68-6.29,60.96,2.55,70.81,15.86,10.44,14.11,14.43,31.11,11.58,48.75-1.05,6.49-6.83,9.24-13.58,9.18-10.91-.1-21.83-.03-32.75-.04Z"/>
  <path class="cls-5" d="M1013.24,1113.2c-2.7-28.92-1.92-57.86-.35-86.79,15.25-4.29,30.42-4.15,45.51,.62,2.9,28.23-1.25,56.5,.62,84.72-15.1,6.1-30.38,5.5-45.78,1.45Z"/>
  <path class="cls-5" d="M768.2,1025.55c4.59,29.57,1.63,59.1-.54,88.63-13.94-.26-27.87-.52-41.79-.78-1.97-29.26-1.11-58.54-.48-87.8,14.28-3.54,28.55-3.17,42.82-.04Z"/>
  <path class="cls-6" d="M1180.86,971.74c13.31,0,26.62-.07,39.93,.05,3.25,.03,7.85-.79,7.87,4.16,.02,3.22-3.46,4.59-6.61,4.6-27.6,.07-55.21,.07-82.82,.03-2.51,0-5.19-.68-5.53-3.7-.45-4.06,2.73-4.9,5.74-4.93,13.8-.13,27.6-.06,41.41-.06,0-.05,0-.1,0-.15Z"/>
  <path class="cls-6" d="M602.02,980.59c-13.37,0-26.73,.04-40.1-.03-3.06-.02-6.48-.7-6.41-4.47,.07-3.8,3.57-4.24,6.6-4.25,26.73-.02,53.46,0,80.19,.07,3.06,0,6.5,.63,6.41,4.44-.09,3.73-3.54,4.3-6.6,4.31-13.37,.06-26.73,.03-40.1,.03,0-.03,0-.07,0-.1Z"/>
  <path class="cls-13" d="M593.8,410.04c188.48-.06,376.95-.12,565.43-.19,5.95,0,11.9-.16,17.84-.24,9.22,.92,13.24,5.13,13.18,15.24-.11,18.31,1.94,36.61,2.28,54.93,.6,33.16,.61,66.33,.86,99.5-.21,2.02-.41,4.04-.62,6.06-2.33,9.42-4.58,18.87-7.01,28.27-3.68,14.25-10.7,25.25-26.95,27.01-56.74-.27-113.48-.67-170.22-.75-32.07-.05-64.15,.43-96.23,.68-3.28-6.65,2.92-8.81,6.15-11.75,11.36-10.34,23.41-19.93,34.7-30.34,6.68-6.16,13.92-8.2,22.89-8.16,53.58,.29,107.15,.12,160.73,.07,4.45,0,8.93-.09,13.35-.57,2.45-.27,4.97-1.56,5.24-4.41,.35-3.71-2.44-5.24-5.49-5.77-2.91-.5-5.92-.45-8.89-.45-57.05-.01-114.1-.01-171.15,.05-4.89,0-10.22-1.09-14.28,2.61-20.81,18.97-43.84,35.46-63.08,56.18-2.66,.89-5.32,1.77-7.98,2.66-5.67-2.62-11.71-1.55-17.58-1.56-56.96-.07-113.92-.05-170.88,.06-5.87,.01-11.91-1.13-17.59,1.46-11.43-1.94-22.86-.63-34.3-.01-4.67-5.67-.57-8.68,3.43-12.03,10.64-8.9,21.85-17.28,31.46-27.19,9.23-9.52,19.59-11.34,32.09-11.22,53.57,.49,107.14,.22,160.71,.12,4.67,0,11.83,1.7,12.29-4.8,.59-8.26-7.25-6.32-12.24-6.33-58.03-.12-116.07-.07-174.1-.06-4.47,0-9.23-.35-12.77,2.89-14.93,13.66-31.72,25.26-45.18,40.54-14.13,12.62-15.13,12.31-21.47-6.77-1.39-4.18-2.72-8.38-4.08-12.58,1.2-3.31,.37-6.29-1.45-9.12-.69-5.99-1.38-11.99-2.06-17.98,.67-38.7,1.62-77.41-.13-116.11,.17-7.91,.33-15.81,.5-23.72,3.57-8.48,.13-17.66,2.61-26.25Z"/>
  <path class="cls-4" d="M1102.31,740.08c-140.83,0-281.66-.01-422.49-.01-6.38-2.21-16.83,4.71-18.13-8.92-1.57-16.57,3.76-28.99,16.16-32.65,7.01-2.07,14.23-3.54,21.84-3.53,128.84,.19,257.68,.15,386.51,.13,15.16,0,27.83,2.59,32.66,20.35,4.3,15.84,.52,22.75-16.55,24.64Z"/>
  <path class="cls-15" d="M496.36,441.77q-1.41-32.23,30.64-32.24c6.93,0,13.85-.37,20.78-.57,9.65-1.44,8.95,7.62,12.54,12.34-.58,8.97-3.92,17.68-2.65,26.83-4.85,9.88-4.52,19.8-.28,29.76-4.31,66.84-2.64,133.73-2.08,200.62-15.75,0-31.52-.39-47.26,.11-8.78,.28-12.72-2.45-12-11.7,.65-8.32,.24-16.72,.3-25.09,6.82-1.05,13.6-2.49,20.46-3.07,9.81-.82,13.98-6.01,13.97-15.53-.05-52.52,.17-105.04-.18-157.56-.08-12.35-3.71-22.93-19.93-20.59-5.13,.74-9.69-1.57-14.31-3.32Z"/>
  <path class="cls-9" d="M1236.64,409.33c1.48,.04,2.96,.07,4.44,.11,12.3,.33,27.31-3.55,36.13,2.15,9.03,5.84,1.02,22.13,4.15,33.49q-35.9,.22-35.92,35.66c-.02,44.56-.02,89.11,0,133.67,0,21.49,2.21,23.71,23.55,24.25,3.95,.1,7.9,.52,11.85,.8-.18,3.96-.49,7.91-.54,11.86q-.31,27.56-28.66,27.57c-8.91,.02-17.82,.33-26.72,.52-.11-89-.22-178-.33-267.01,4.01-1.02,8.03-2.04,12.04-3.07Z"/>
  <path class="cls-6" d="M872.54,638.02c19.24-20.73,42.27-37.21,63.08-56.18,4.06-3.7,9.39-2.61,14.28-2.61,57.05-.06,114.1-.06,171.15-.05,2.97,0,5.99-.05,8.89,.45,3.05,.52,5.84,2.06,5.49,5.77-.27,2.86-2.79,4.15-5.24,4.41-4.42,.48-8.9,.57-13.35,.57-53.58,.05-107.15,.22-160.73-.07-8.97-.05-16.2,1.99-22.89,8.16-11.29,10.41-23.33,20.01-34.7,30.34-3.23,2.94-9.43,5.1-6.15,11.75-7.07,2.73-13.03-3.21-19.83-2.54Z"/>
  <path class="cls-6" d="M619.88,622.56c13.47-15.28,30.25-26.88,45.18-40.54,3.54-3.23,8.3-2.89,12.77-2.89,58.03-.01,116.07-.06,174.1,.06,4.99,.01,12.83-1.93,12.24,6.33-.46,6.5-7.62,4.79-12.29,4.8-53.57,.1-107.14,.37-160.71-.12-12.51-.11-22.86,1.7-32.09,11.22-9.61,9.91-20.82,18.29-31.46,27.19-4,3.35-8.1,6.35-3.43,12.03-5.99,1.03-11.7,1.58-6.53-7.21,2.06-3.51,2.84-6.97,2.22-10.87Z"/>
  <path class="cls-6" d="M658.5,640.65c5.68-2.59,11.72-1.45,17.59-1.46,56.96-.11,113.92-.13,170.88-.06,5.88,0,11.91-1.06,17.58,1.56-3.4,5.33-8.82,3.5-13.49,3.51-59.7,.11-119.4,.12-179.11,.02-4.67,0-10.1,1.82-13.46-3.56Z"/>
  <path class="cls-6" d="M1193.4,579.28c-.25-33.17-.26-66.34-.86-99.5-.33-18.32-2.39-36.63-2.28-54.93,.06-10.11-3.96-14.33-13.18-15.24,5.84-5.35,11.37-.82,16.99,.55,4.19,51.98,4.18,104.05,3.51,156.13-.06,4.61,1.82,10.16-4.17,13Z"/>
  <path class="cls-6" d="M590.69,460c1.76,38.7,.8,77.4,.13,116.11-.65-.72-1.83-1.41-1.89-2.18-2.59-37.23-2.07-74.46-.06-111.69,.04-.78,1.19-1.49,1.82-2.24Z"/>
  <path class="cls-6" d="M1158.82,640.62c16.25-1.76,23.27-12.76,26.95-27.01,2.43-9.4,4.68-18.84,7.01-28.27,4.26,19.58-2.99,36.51-13.95,51.59-3.92,5.4-11.82,10.87-20.01,3.69Z"/>
  <path class="cls-2" d="M557.39,477.88c-4.24-9.96-4.57-19.88,.28-29.76,4.32,9.96,4.66,19.89-.28,29.76Z"/>
  <path class="cls-6" d="M593.8,410.04c-2.48,8.59,.95,17.77-2.61,26.25-6.42-8.72-4.02-17.68-.72-26.67,1.11,.14,2.23,.28,3.34,.42Z"/>
  <path class="cls-6" d="M592.88,594.09c1.82,2.83,2.66,5.81,1.45,9.12-4.37-2.42-4.83-5.47-1.45-9.12Z"/>
  <path class="cls-4" d="M789.67,1614.57c.18,.87,.3,1.75,.36,2.63-2.89-.5-2.13-1.5-.36-2.63Z"/>
  <path class="cls-12" d="M1816.35,360.49c-3.43-24.2,11.09-39.04,27.59-52.72,7.64-6.34,15.37-12.43,20.98-20.87,7.5-11.28,6.69-22.67,.07-33.53-5.53-9.08-14.54-11.07-24.76-9.14-13.02,2.45-18.19,11.46-18.9,23.29-.56,9.33-5.2,11.48-13.49,11.2-16.77-.57-26.96-10.35-28.51-28.14-1.78-20.54,10.82-40.58,31.16-49.53,33.39-14.69,77.67-2.52,98.66,27.12,22.12,31.23,18.24,70.1-9.55,99.01-9.02,9.38-19.07,17.44-30.19,23.96-10.32,6.06-16.45,14.33-16.55,26.26-.08,9.62-2.89,14.75-13.88,13.56-10.04-1.09-20.73,.13-21.79-14.15-.4-5.43-.57-10.88-.84-16.33Z"/>
  <path class="cls-11" d="M2053.04,320.02c1.98,18.74-8.42,31.68-26.66,39.51-16.27,6.98-33.46,11.97-43.62,28.85-5,8.3-11.36,.27-16.72-1.86-7.64-3.05-10.34-9.17-7.67-16.87,3.43-9.9,10.5-16.45,20.27-20.33,8.72-3.46,17.65-6.65,25.86-11.11,10.87-5.92,13.82-20.6,7.09-30.8-6.69-10.13-15.37-10.56-21.56-.2-3.35,5.61-6.43,8.3-12.87,5.83-6.52-2.5-10.87-6.27-11.36-13.9-.93-14.75,13.67-30.49,30.82-32.76,31.72-4.18,56.63,18.56,56.43,53.63Z"/>
  <path class="cls-1" d="M1689.22,198.1c16.98,0,32.49,9.77,38.1,22.89,3.91,9.14,1.34,13.78-8.08,15.16-3.4,.5-6.89,.76-10.31,.57-19.65-1.08-19.43-1.14-19.93,19.6-.13,5.38,3.29,13.07-4.49,15.46-7.75,2.38-15.38,1.18-21.45-5.86-10.66-12.36-16.68-26.29-11.36-42.15,5.58-16.6,20.36-25.67,37.51-25.67Z"/>
  <path class="cls-12" d="M1856.07,431.76c-.35,13.65-10.55,24.99-22.32,24.83-12.43-.16-25.6-12.54-25.28-23.76,.37-13.3,11.46-23.56,25.37-23.47,12.89,.08,22.56,9.82,22.23,22.4Z"/>
  <path class="cls-11" d="M1960.13,400.49c8.75,1.15,14.9,5.09,14.78,14.87-.12,9.99-6.19,16.14-15.46,16.18-9.32,.04-15.84-7.01-16.09-16-.27-9.85,7.33-14.11,16.77-15.05Z"/>
  <path class="cls-6" d="M1692.43,410.29c-.12,16.96-11.68,27.84-21.71,39.2-6.08,6.88-11.97,14.02-12.89,22.9-1.55,14.98-11.79,12.95-20.46,10.77-10.23-2.57-10.86-11.73-8.71-20.43,2.49-10.1,10.6-16.39,17.29-23.68,8.27-9.01,18.48-17.63,9.64-32.11-4.05-6.63-9.45-9.89-17.1-9.5-8.27,.42-8.89,6.35-9.07,12.64-.14,4.65-2.68,7.21-7.25,7.91-5.85,.9-10.94-.45-14.4-5.48-8.02-11.64-4.9-22.76,2.74-32.88,12.05-15.96,29.97-20.88,48.96-14.24,19.9,6.96,32.96,24.76,32.97,44.9Z"/>
  <path class="cls-1" d="M1507.79,495.55c-22.61,3.33-36.56-12.46-41.09-31.37-3.69-15.38,7.01-36.04,23.34-43.93,7.95-3.84,14.8-3.43,14.49,8.29-.01,.49-.03,.99,.01,1.48,.81,8.74-3.62,19.33,2.28,25.83,6.19,6.81,16.51-.56,25.04,1.07,4.71,.9,10.26-.72,13.1,4.7,3.07,5.88-.76,10.17-3.78,14.74-8.26,12.49-17.45,23.08-33.39,19.19Z"/>
  <path class="cls-1" d="M1524.39,528.44c-13.39,0-26.78,.05-40.17-.03-3.95-.02-8.58,.2-8.89-5.38-.37-6.7,4.86-6.41,9.32-6.42,26.29-.06,52.57-.06,78.86,0,3.95,0,8.58-.21,8.89,5.37,.37,6.7-4.87,6.39-9.32,6.42-12.89,.09-25.79,.03-38.68,.03Z"/>
  <path class="cls-10" d="M1662.6,507.23c-.51,12.87-4.69,19.03-14.43,18.29-8.06-.61-15.86-3.35-15.39-13.87,.46-10.32,7.79-14.96,16.57-15.05,8.02-.08,13.64,5,13.25,10.62Z"/>
</svg>