<?xml version="1.0" encoding="UTF-8"?>
<svg id="Layer_1" data-name="Layer 1" xmlns="http://www.w3.org/2000/svg" viewBox="0 0 2267.72 2267.72">
  <defs>
    <style>
      .cls-1 {
        fill: #da2017;
      }

      .cls-2 {
        fill: #fefd00;
      }
    </style>
  </defs>
  <rect class="cls-1" width="2266.64" height="2266.64"/>
  <path class="cls-1" d="M869.26,1479.29c4.49,1.82,6.96-1.83,9.8-3.89,81.62-59.07,163.3-118.06,244.6-177.57,8.18-5.99,13.01-5.34,20.75,.31,81.36,59.43,163.01,118.47,244.66,177.51,2.26,1.64,4.62,5.74,7.79,3.16,2.41-1.96-.28-5.29-1.1-7.85-7.61-23.76-15.27-47.5-23.05-71.2-14.91-45.44-29.95-90.84-44.87-136.28-8.86-26.98-17.23-54.12-26.59-80.92-2.94-8.41-.89-12.71,6.02-17.69,82.5-59.46,164.79-119.21,247.09-178.96,2.55-1.85,5.97-3.07,7.64-7.17-4.28,0-7.71,0-11.15,0-102.06,0-204.13-.06-306.19,.14-6.64,.01-10-1.58-11.87-8.38-3.7-13.46-8.45-26.64-12.78-39.93-17.01-52.25-34-104.49-51.03-156.73-10.35-31.77-20.72-63.53-31.14-95.27-.99-3.02-1.07-6.67-4.86-8.81-1.08,2.79-2.08,5.06-2.84,7.4-13.23,40.61-26.43,81.24-39.65,121.85-18.55,57.01-37.25,113.96-55.48,171.07-2.24,7-5.41,8.85-12.52,8.83-102.06-.25-204.13-.17-306.19-.17h-10.47c1.74,4.12,4.86,5.21,7.27,6.95,44.69,32.48,89.43,64.88,134.16,97.31,38.37,27.82,76.76,55.62,115.07,83.52,3.01,2.19,7.58,3.54,5.28,9.37-2.61,6.61-4.24,13.6-6.46,20.37-16.16,49.22-32.51,98.38-48.52,147.65-14.58,44.87-28.8,89.86-43.36,135.37Z"/>
  <path class="cls-2" d="M675.02,1779.25c25.36-79.25,50.12-157.6,75.51-235.75,27.88-85.81,56.35-171.42,84.5-257.14,3.87-11.79,6.71-23.96,11.25-35.47,4-10.16-3.96-12.5-9.2-16.32-66.73-48.58-133.57-97.01-200.4-145.46-77.89-56.47-155.81-112.9-233.63-169.47-4.18-3.04-9.62-4.93-12.66-12.11h18.24c177.75,0,355.49-.14,533.24,.3,12.38,.03,17.92-3.18,21.81-15.38,31.76-99.45,64.32-198.65,96.63-297.92,23.02-70.74,46-141.48,69.05-212.21,1.33-4.09,3.08-8.04,4.95-12.89,6.6,3.73,6.74,10.09,8.46,15.35,18.14,55.28,36.2,110.6,54.23,165.92,29.64,90.98,59.25,181.97,88.86,272.95,7.53,23.15,15.8,46.09,22.25,69.54,3.26,11.85,9.11,14.62,20.68,14.59,177.74-.35,355.49-.25,533.24-.25,5.98,0,11.95,0,19.41,0-2.9,7.14-8.86,9.26-13.3,12.49-143.31,104.06-286.63,208.12-430.3,311.67-12.03,8.67-15.6,16.16-10.49,30.81,16.3,46.67,30.89,93.94,46.31,140.92,25.98,79.13,52.16,158.2,78.14,237.33,13.55,41.28,26.89,82.62,40.15,123.99,1.43,4.47,6.11,10.26,1.91,13.68-5.51,4.49-9.61-2.66-13.56-5.51-142.18-102.83-284.38-205.64-426.08-309.15-13.48-9.85-21.89-10.98-36.14-.54-141.58,103.64-283.83,206.37-425.98,309.25-4.95,3.59-9.24,9.95-17.07,6.77Z"/>
</svg>